<svg xmlns="http://www.w3.org/2000/svg" width="114.876" height="85.462" viewBox="0 0 114.876 85.462">
  <g id="Grupo_6597" data-name="Grupo 6597" transform="translate(8758.935 -17894.361)">
    <g id="PLANO_DE_CELULAR" data-name="PLANO DE CELULAR" transform="translate(-8756.683 17900.834)">
      <g id="Grupo_5686" data-name="Grupo 5686" transform="translate(0 51.846)">
        <g id="Grupo_5685" data-name="Grupo 5685" transform="translate(0 0)">
          <path id="Caminho_4997" data-name="Caminho 4997" d="M39.316,5.352l-1.764.876V4.8l2.172-1.08h1.452V12h-1.86Zm5.1,0-1.764.876V4.8l2.172-1.08h1.452V12h-1.86Zm9.792.084a5.4,5.4,0,0,0-.936-.222,6.529,6.529,0,0,0-1.02-.09q-2.316,0-2.316,2.736a3.314,3.314,0,0,0,.534,2.034,1.968,1.968,0,0,0,1.674.7l.588-.024V8h1.776v3.828a9.047,9.047,0,0,1-1.23.228,10.219,10.219,0,0,1-1.218.084,4.37,4.37,0,0,1-2.214-.522,3.334,3.334,0,0,1-1.368-1.488,5.19,5.19,0,0,1-.462-2.262,5.083,5.083,0,0,1,.48-2.286A3.386,3.386,0,0,1,49.918,4.1,4.654,4.654,0,0,1,52.2,3.576a6.554,6.554,0,0,1,2,.288ZM56.344,3.72h3.444a2.623,2.623,0,0,1,1.728.528,1.812,1.812,0,0,1,.636,1.476,2,2,0,0,1-.318,1.152,1.868,1.868,0,0,1-.822.684v.072a1.888,1.888,0,0,1,1.074.72,2.189,2.189,0,0,1,.378,1.308,2.169,2.169,0,0,1-.708,1.716A2.746,2.746,0,0,1,59.872,12H56.344Zm3.1,6.96a1.268,1.268,0,0,0,.894-.294,1.1,1.1,0,0,0,.318-.846,1.1,1.1,0,0,0-.318-.846A1.268,1.268,0,0,0,59.44,8.4H58.192v2.28Zm-.12-3.516a1.132,1.132,0,0,0,.816-.276,1.046,1.046,0,0,0,.288-.792,1.014,1.014,0,0,0-.294-.786,1.17,1.17,0,0,0-.822-.27H58.192V7.164ZM72.22,9.24a2.866,2.866,0,0,1-.78,2.13,3.468,3.468,0,0,1-4.368,0,2.866,2.866,0,0,1-.78-2.13V3.72h1.4V9.192a2.015,2.015,0,0,0,.39,1.308,1.666,1.666,0,0,0,2.34,0,2.015,2.015,0,0,0,.39-1.308V3.72h1.4Zm1.656-3.276A2.116,2.116,0,0,1,74.668,4.2a3.277,3.277,0,0,1,2.088-.624,6.032,6.032,0,0,1,1.026.09,5.29,5.29,0,0,1,.942.246v1.2a9.586,9.586,0,0,0-1.086-.276,5.232,5.232,0,0,0-.978-.108,1.609,1.609,0,0,0-1,.282.981.981,0,0,0-.372.834.969.969,0,0,0,.282.744,2.84,2.84,0,0,0,.906.5l.828.312a3.308,3.308,0,0,1,1.356.894,2.1,2.1,0,0,1,.48,1.422,2.189,2.189,0,0,1-.78,1.77,3.107,3.107,0,0,1-2.064.654,5.8,5.8,0,0,1-1.35-.168,4.757,4.757,0,0,1-1.182-.432v-1.26a5.9,5.9,0,0,0,1.272.51,4.846,4.846,0,0,0,1.3.2,1.581,1.581,0,0,0,1.02-.3,1.032,1.032,0,0,0,.372-.852,1.031,1.031,0,0,0-.3-.78,2.886,2.886,0,0,0-.972-.54l-.732-.276a3.415,3.415,0,0,1-1.38-.882A2.044,2.044,0,0,1,73.876,5.964Zm9.9,6.18A3.185,3.185,0,0,1,81.142,11a4.881,4.881,0,0,1-.918-3.144,4.881,4.881,0,0,1,.918-3.144,3.592,3.592,0,0,1,5.25,0A4.9,4.9,0,0,1,87.3,7.86,4.9,4.9,0,0,1,86.392,11,3.155,3.155,0,0,1,83.776,12.144ZM81.652,7.86a4.359,4.359,0,0,0,.51,2.3,1.988,1.988,0,0,0,3.216.006,4.353,4.353,0,0,0,.51-2.3,4.353,4.353,0,0,0-.51-2.3,1.988,1.988,0,0,0-3.216.006A4.359,4.359,0,0,0,81.652,7.86Zm10.98-4.14v7.14h3.144V12H91.228V3.72Zm6.06,0V12h-1.4V3.72Zm2.82,0,1.9,6.876h.12l1.9-6.876h1.344L104.428,12h-2l-2.34-8.28Zm6.648,0h2.964a2.412,2.412,0,0,1,1.734.6,2.225,2.225,0,0,1,.63,1.692,2.573,2.573,0,0,1-.366,1.4,2,2,0,0,1-.978.822v.084L113.836,12h-1.5l-1.392-3.228h-1.392V12H108.16Zm2.568,4.044a1.379,1.379,0,0,0,1.074-.4,1.643,1.643,0,0,0,.366-1.146,1.284,1.284,0,0,0-1.44-1.464h-1.176V7.764ZM120.2,3.72V4.836h-3.5v2.4h2.592V8.352h-2.592v2.532h3.5V12h-4.9V3.72ZM24.22,23.448H21.748V22.284H24.22v-2.5h1.224v2.5h2.472v1.164H25.444v2.5H24.22Zm5.124-4.464a6.009,6.009,0,0,1,2.184-.408,3.5,3.5,0,0,1,1.986.5,1.56,1.56,0,0,1,.738,1.362,1.733,1.733,0,0,1-.42,1.14,2.978,2.978,0,0,1-1.164.816,2.294,2.294,0,0,1,1.32.714,2.005,2.005,0,0,1,.48,1.374q0,2.664-5.124,2.664V25.716a6.677,6.677,0,0,0,2.43-.336,1.116,1.116,0,0,0,.81-1.056q0-.984-1.44-.984a7.425,7.425,0,0,0-1.152.108v-1.3a5.483,5.483,0,0,0,1.746-.492.99.99,0,0,0,.642-.864.668.668,0,0,0-.306-.582A1.528,1.528,0,0,0,31.2,20a4.57,4.57,0,0,0-.942.108,4.19,4.19,0,0,0-.918.3Zm9.624,8.16a2.929,2.929,0,0,1-2.448-1.122,5.032,5.032,0,0,1-.876-3.162A5.032,5.032,0,0,1,36.52,19.7a3.232,3.232,0,0,1,4.9,0,5.032,5.032,0,0,1,.876,3.162,5.032,5.032,0,0,1-.876,3.162A2.929,2.929,0,0,1,38.968,27.144Zm-1.44-4.284A5.093,5.093,0,0,0,37.876,25a1.191,1.191,0,0,0,2.19-.006,5.022,5.022,0,0,0,.354-2.13,5.022,5.022,0,0,0-.354-2.13,1.191,1.191,0,0,0-2.19-.006A5.093,5.093,0,0,0,37.528,22.86ZM49.54,20.436a5.4,5.4,0,0,0-.936-.222,6.529,6.529,0,0,0-1.02-.09q-2.316,0-2.316,2.736a3.314,3.314,0,0,0,.534,2.034,1.968,1.968,0,0,0,1.674.7l.588-.024V23H49.84v3.828a9.047,9.047,0,0,1-1.23.228,10.219,10.219,0,0,1-1.218.084,4.37,4.37,0,0,1-2.214-.522,3.334,3.334,0,0,1-1.368-1.488,5.19,5.19,0,0,1-.462-2.262,5.083,5.083,0,0,1,.48-2.286A3.386,3.386,0,0,1,45.25,19.1a4.654,4.654,0,0,1,2.286-.522,6.554,6.554,0,0,1,2,.288Zm2.136-1.716H55.12a2.623,2.623,0,0,1,1.728.528,1.812,1.812,0,0,1,.636,1.476,2,2,0,0,1-.318,1.152,1.868,1.868,0,0,1-.822.684v.072a1.888,1.888,0,0,1,1.074.72,2.441,2.441,0,0,1-.33,3.024A2.746,2.746,0,0,1,55.2,27H51.676Zm3.1,6.96a1.268,1.268,0,0,0,.894-.294,1.284,1.284,0,0,0,0-1.692,1.268,1.268,0,0,0-.894-.294H53.524v2.28Zm-.12-3.516a1.132,1.132,0,0,0,.816-.276,1.046,1.046,0,0,0,.288-.792,1.014,1.014,0,0,0-.294-.786,1.17,1.17,0,0,0-.822-.27H53.524v2.124Zm11.724,3.42h.156L68.62,18.72h1.92L71.488,27H70.072l-.432-4.464q-.12-1.14-.168-2.292h-.12L67.228,27H65.536L63.4,20.244h-.12q-.072,1.164-.18,2.256L62.656,27H61.408l.936-8.28h1.944ZM78.22,18.72v1.116h-3.5v2.4h2.592v1.116H74.716v2.532h3.5V27h-4.9V18.72Zm6.828,1.32a6.127,6.127,0,0,0-.882-.21,5.773,5.773,0,0,0-.978-.09,2.448,2.448,0,0,0-2.022.822,3.558,3.558,0,0,0-.666,2.3,3.777,3.777,0,0,0,.612,2.3,2.243,2.243,0,0,0,1.92.816,7.555,7.555,0,0,0,.96-.072V23.04h1.32v3.816a8.2,8.2,0,0,1-1.158.21A10.133,10.133,0,0,1,83,27.144a3.66,3.66,0,0,1-2.928-1.152,4.627,4.627,0,0,1-1-3.132,5.124,5.124,0,0,1,.468-2.268A3.393,3.393,0,0,1,80.926,19.1a4.448,4.448,0,0,1,2.25-.528,6.152,6.152,0,0,1,1.872.264Zm7,6.96-.66-2.184H88.528L87.868,27H86.524L89,18.72h1.968L93.448,27Zm-.912-3.288-1.116-3.624H89.9l-1.1,3.624Zm3.6-4.992H97.84a2.391,2.391,0,0,1,1.65.54,1.876,1.876,0,0,1,.606,1.476,2.031,2.031,0,0,1-.318,1.158,1.855,1.855,0,0,1-.822.69v.072a1.9,1.9,0,0,1,1.092.732,2.219,2.219,0,0,1,.384,1.32,2.144,2.144,0,0,1-.684,1.674A2.617,2.617,0,0,1,97.924,27H94.732ZM97.6,25.992a1.549,1.549,0,0,0,1.1-.354,1.581,1.581,0,0,0,0-2.052,1.53,1.53,0,0,0-1.086-.354h-1.5v2.76Zm-.108-3.708a1.316,1.316,0,0,0,.972-.336A1.282,1.282,0,0,0,98.8,21a1.261,1.261,0,0,0-.336-.942,1.348,1.348,0,0,0-.984-.33H96.112v2.556Zm7.488,4.86A3.185,3.185,0,0,1,102.346,26a4.881,4.881,0,0,1-.918-3.144,4.881,4.881,0,0,1,.918-3.144,3.592,3.592,0,0,1,5.25,0,4.9,4.9,0,0,1,.912,3.144A4.9,4.9,0,0,1,107.6,26,3.155,3.155,0,0,1,104.98,27.144Zm-2.124-4.284a4.359,4.359,0,0,0,.51,2.3,1.988,1.988,0,0,0,3.216.006,4.353,4.353,0,0,0,.51-2.3,4.353,4.353,0,0,0-.51-2.3,1.988,1.988,0,0,0-3.216.006A4.359,4.359,0,0,0,102.856,22.86Zm3.06-4.86-.948-1.116L104.032,18h-.708v-.108l1.08-1.908h1.128l1.08,1.908V18Zm4.164.72h1.332L115,25.092h.084a22.776,22.776,0,0,1-.192-2.988V18.72h1.272V27h-1.332l-3.6-6.372h-.072a22.776,22.776,0,0,1,.192,2.988V27H110.08Zm14.052,5.52a2.866,2.866,0,0,1-.78,2.13,3.468,3.468,0,0,1-4.368,0,2.866,2.866,0,0,1-.78-2.13V18.72h1.4v5.472A2.015,2.015,0,0,0,120,25.5a1.666,1.666,0,0,0,2.34,0,2.015,2.015,0,0,0,.39-1.308V18.72h1.4Zm1.656-3.276a2.116,2.116,0,0,1,.792-1.764,3.277,3.277,0,0,1,2.088-.624,6.032,6.032,0,0,1,1.026.09,5.289,5.289,0,0,1,.942.246v1.2a9.587,9.587,0,0,0-1.086-.276,5.232,5.232,0,0,0-.978-.108,1.609,1.609,0,0,0-1,.282.981.981,0,0,0-.372.834.969.969,0,0,0,.282.744,2.84,2.84,0,0,0,.906.5l.828.312a3.308,3.308,0,0,1,1.356.894,2.1,2.1,0,0,1,.48,1.422,2.189,2.189,0,0,1-.78,1.77,3.107,3.107,0,0,1-2.064.654,5.8,5.8,0,0,1-1.35-.168,4.757,4.757,0,0,1-1.182-.432v-1.26a5.9,5.9,0,0,0,1.272.51,4.846,4.846,0,0,0,1.3.2,1.581,1.581,0,0,0,1.02-.3,1.163,1.163,0,0,0,.072-1.632,2.886,2.886,0,0,0-.972-.54l-.732-.276a3.415,3.415,0,0,1-1.38-.882A2.044,2.044,0,0,1,125.788,20.964Zm8.22.24-1.536,1.008-.432-.744,1.644-.828-1.644-.828.432-.744,1.536,1.008L133.9,18.24h.864l-.108,1.836,1.536-1.008.432.744-1.644.828,1.644.828-.432.744L134.656,21.2l.108,1.836H133.9Z" transform="translate(-24 0)"/>
        </g>
      </g>
      <g id="Grupo_5684" data-name="Grupo 5684" transform="translate(9.192 0)">
        <path id="Caminho_4996" data-name="Caminho 4996" d="M-30.765-6.468H-43.071v-4.494L-34.5-28.98h6.3l-8.316,17.514h5.8l2.226-7.728h3.822v7.728h3.612l-.462,5h-3.15V0h-6.468Zm15.036-16.8L-21.9-20.2v-5l7.6-3.78h5.082V0h-6.51Zm31.962.294a18.89,18.89,0,0,0-3.276-.777,22.853,22.853,0,0,0-3.57-.315q-8.106,0-8.106,9.576,0,4.662,1.869,7.119T9.009-4.914L11.067-5v-8.988h6.216v13.4a31.664,31.664,0,0,1-4.305.8A35.766,35.766,0,0,1,8.715.5,15.294,15.294,0,0,1,.966-1.323,11.671,11.671,0,0,1-3.822-6.531a18.166,18.166,0,0,1-1.617-7.917,17.79,17.79,0,0,1,1.68-8,11.85,11.85,0,0,1,4.977-5.208,16.288,16.288,0,0,1,8-1.827,22.94,22.94,0,0,1,7.014,1.008ZM21.4-28.98H33.453A9.18,9.18,0,0,1,39.5-27.132a6.344,6.344,0,0,1,2.226,5.166,7.008,7.008,0,0,1-1.113,4.032,6.537,6.537,0,0,1-2.877,2.394v.252a6.608,6.608,0,0,1,3.759,2.52A7.662,7.662,0,0,1,42.819-8.19a7.591,7.591,0,0,1-2.478,6.006A9.611,9.611,0,0,1,33.747,0H21.4ZM32.235-4.62a4.438,4.438,0,0,0,3.129-1.029A3.833,3.833,0,0,0,36.477-8.61a3.833,3.833,0,0,0-1.113-2.961A4.438,4.438,0,0,0,32.235-12.6H27.867v7.98Zm-.42-12.306a3.963,3.963,0,0,0,2.856-.966,3.66,3.66,0,0,0,1.008-2.772,3.549,3.549,0,0,0-1.029-2.751,4.1,4.1,0,0,0-2.877-.945H27.867v7.434Z" transform="translate(44 43)" fill="#e3262e"/>
      </g>
    </g>
    <g id="Claro_pós" data-name="Claro pós" transform="translate(-8725.88 17894.361)">
      <path id="Caminho_2847" data-name="Caminho 2847" d="M19.222,5.093l-.557.153a2.31,2.31,0,0,0-1.028.82V5.329l-1.375-.013v5.789h1.43V8.336a2.064,2.064,0,0,1,.182-1.017,1.352,1.352,0,0,1,.5-.556,1.394,1.394,0,0,1,.792-.252l.444.029L19.6,5.064Zm-11.2,6.015H9.471V3.566H8.027Zm5.75-2.94L13.5,8.32l-.722.181A1.923,1.923,0,0,0,12.1,8.7a.723.723,0,0,0-.347.655.722.722,0,0,0,.209.571.792.792,0,0,0,.513.166,1.523,1.523,0,0,0,.9-.292,1.221,1.221,0,0,0,.4-1.043ZM15.291,6.86v4.259H13.846v-.6a2.816,2.816,0,0,1-1.86.6,1.855,1.855,0,0,1-1.181-.4,1.554,1.554,0,0,1-.485-1.238A1.636,1.636,0,0,1,11.11,7.9a3.5,3.5,0,0,1,1.25-.376l1.112-.18A.48.48,0,0,0,13.8,6.9a.522.522,0,0,0-.25-.487,1.27,1.27,0,0,0-.707-.139.86.86,0,0,0-.764.279.929.929,0,0,0-.208.529H10.43a2.3,2.3,0,0,1,.417-1.267,2.362,2.362,0,0,1,2.042-.765,3.353,3.353,0,0,1,1.68.376A1.489,1.489,0,0,1,15.291,6.86ZM3.721,5.032a2.217,2.217,0,0,1,1.236.376,2.5,2.5,0,0,1,.82.96H7.291A3.719,3.719,0,0,0,5.985,4.378,3.469,3.469,0,0,0,3.721,3.6,3.412,3.412,0,0,0,1.1,4.7,3.607,3.607,0,0,0,0,7.355a3.66,3.66,0,0,0,1.1,2.672,3.551,3.551,0,0,0,2.625,1.086,3.615,3.615,0,0,0,2.264-.766A3.776,3.776,0,0,0,7.291,8.357H5.777a2.606,2.606,0,0,1-.82.96,2.315,2.315,0,0,1-1.236.362A2.221,2.221,0,0,1,2.1,9,2.166,2.166,0,0,1,1.43,7.355,2.168,2.168,0,0,1,2.1,5.714,2.223,2.223,0,0,1,3.721,5.032Zm20.611,3.03a1.659,1.659,0,0,0-.46-1.141,1.475,1.475,0,0,0-1.138-.459,1.419,1.419,0,0,0-1.111.459,1.554,1.554,0,0,0-.473,1.141,1.594,1.594,0,0,0,.473,1.128,1.559,1.559,0,0,0,2.235,0A1.658,1.658,0,0,0,24.332,8.061ZM24.873,5.9a2.987,2.987,0,0,1,.875,2.157,3.038,3.038,0,0,1-3.014,3.047,2.85,2.85,0,0,1-2.111-.9,2.888,2.888,0,0,1-.889-2.143A2.94,2.94,0,0,1,20.624,5.9a2.842,2.842,0,0,1,2.111-.891A2.927,2.927,0,0,1,24.873,5.9ZM26.7,8.141H30.6V6.847H26.7Zm2.79-6.4L26,5.236l-.916-.919L28.569.825ZM23.551,4.006V.1H22.258V4.006Z" transform="translate(0 -0.1)" fill-rule="evenodd"/>
      <path id="Caminho_2848" data-name="Caminho 2848" d="M94.991,17.159a3.509,3.509,0,0,0-.6-2.489,2.062,2.062,0,0,0-1.443-.534,1.8,1.8,0,0,0-1.477.625V14.2H90.036V22.3h1.477V19.6a1.751,1.751,0,0,0,1.432.591,2.062,2.062,0,0,0,1.443-.534A3.539,3.539,0,0,0,94.991,17.159Zm-1.477,0c0,.966-.114,1.7-1,1.7s-1-.739-1-1.7.114-1.693,1-1.693S93.513,16.193,93.513,17.159Z" transform="translate(-58.063 -9.152)"/>
      <path id="Caminho_2849" data-name="Caminho 2849" d="M111.249,12.061a3,3,0,0,0-.67-2.3,2.454,2.454,0,0,0-1.841-.727,2.426,2.426,0,0,0-1.83.727,3,3,0,0,0-.67,2.3,3.011,3.011,0,0,0,.67,2.307,2.426,2.426,0,0,0,1.83.727,2.454,2.454,0,0,0,1.841-.727A3.011,3.011,0,0,0,111.249,12.061Zm-1.477,0a2.03,2.03,0,0,1-.341,1.443.934.934,0,0,1-.693.261.907.907,0,0,1-.682-.261,2.03,2.03,0,0,1-.341-1.443,2,2,0,0,1,.341-1.432.907.907,0,0,1,.682-.261.934.934,0,0,1,.693.261A2,2,0,0,1,109.772,12.061Zm.636-5.83h-1.557l-.727,1.932h.989Z" transform="translate(-68.512 -4.054)"/>
      <path id="Caminho_2850" data-name="Caminho 2850" d="M126.719,18.261c0-1-.591-1.625-1.761-1.739l-.932-.091c-.523-.045-.614-.3-.614-.511,0-.3.25-.568.841-.568a2.057,2.057,0,0,1,1.375.4l.909-.92a3.144,3.144,0,0,0-2.261-.693c-1.2,0-2.284.659-2.284,1.886,0,1.091.659,1.557,1.727,1.659l.932.091c.466.045.625.25.625.545,0,.443-.534.614-1.045.614a2.15,2.15,0,0,1-1.58-.557l-.966.966a3.218,3.218,0,0,0,2.523.852C125.605,20.193,126.719,19.568,126.719,18.261Z" transform="translate(-78.473 -9.152)"/>
    </g>
  </g>
</svg>
