<svg width="155" height="38" viewBox="0 0 155 38" fill="none" xmlns="http://www.w3.org/2000/svg">
<path fill-rule="evenodd" clip-rule="evenodd" d="M54.1286 14.0597L52.5606 14.4918C51.4683 14.9231 50.4906 15.6681 49.6664 16.8012V14.725L45.7946 14.6884V30.9907H49.8228V23.1923C49.8228 21.8581 49.9813 20.9194 50.3343 20.3294C50.6053 19.7051 51.1139 19.1948 51.7423 18.7642C52.4444 18.2919 53.1868 18.0558 53.9715 18.0558L55.221 18.1369L55.1837 13.98L54.1286 14.0597ZM22.6031 30.9993H26.6708V9.76H22.6031V30.9993ZM38.7949 22.72L38.0138 23.1469L35.9797 23.6565C35.1182 23.7749 34.4548 23.9709 34.0624 24.2055C33.4004 24.6369 33.0847 25.2276 33.0847 26.0493C33.0847 26.7936 33.2835 27.3009 33.6722 27.6562C34.0624 27.9662 34.5329 28.1241 35.1182 28.1241C36.0578 28.1241 36.8784 27.8492 37.6617 27.3009C38.4033 26.7526 38.7949 25.7722 38.7949 24.3642V22.72ZM43.061 19.0366V31.0299H38.9897V29.3433C37.7373 30.4407 35.9793 30.9897 33.7515 31.0299C32.3793 30.9897 31.2468 30.6 30.4248 29.8931C29.4881 29.0312 29.0197 27.8527 29.0577 26.4073C29.0197 24.3267 29.7606 22.8784 31.2848 21.977C32.1872 21.4652 33.3584 21.115 34.8044 20.9169L37.9346 20.4103C38.5586 20.1369 38.8728 19.7019 38.8728 19.1558C38.8326 18.4897 38.6375 18.0182 38.1691 17.7835C37.7008 17.5079 37.0359 17.3493 36.1773 17.3909C35.1581 17.3493 34.4544 17.6263 34.0248 18.1776C33.7515 18.4897 33.5148 18.9606 33.4388 19.666H29.3697C29.4881 18.1776 29.841 16.9983 30.5432 16.0984C31.6377 14.6487 33.5542 13.9022 36.2928 13.9432C38.0522 13.9022 39.6151 14.2575 41.0231 15.0018C42.3522 15.7073 43.061 17.0766 43.061 19.0366ZM10.4785 13.8877C11.7316 13.8877 12.8656 14.2394 13.9601 14.9463C14.9392 15.6131 15.7211 16.5525 16.2683 17.6491H20.531C19.9056 15.3769 18.6927 13.4944 16.8536 12.0476C14.9794 10.5569 12.8276 9.81269 10.4785 9.85144C7.5478 9.81269 5.11979 10.8311 3.0878 12.9461C1.01563 15.0238 0 17.4912 0 20.4309C0 23.3296 1.01563 25.8803 3.0878 27.9551C5.11979 29.9912 7.5478 31.0125 10.4785 31.0125C12.8276 31.0125 14.9794 30.3055 16.8536 28.8551C18.6927 27.3659 19.9056 25.5257 20.531 23.2528H16.2683C15.7211 24.3509 14.9392 25.2487 13.9601 25.9556C12.8656 26.6245 11.7316 26.9762 10.4785 26.9762C8.68107 26.9762 7.15689 26.3095 5.90307 25.0527C4.61563 23.7609 3.98799 22.2366 4.02671 20.4309C3.98799 18.6302 4.61563 17.1001 5.90307 15.809C7.15689 14.5545 8.68107 13.8877 10.4785 13.8877ZM68.5198 22.4193C68.4789 21.1275 68.0493 20.0667 67.2258 19.2063C66.3278 18.307 65.2727 17.8735 64.0211 17.9137C62.8096 17.8735 61.7531 18.307 60.8931 19.2063C60.0316 20.0667 59.5618 21.1275 59.5618 22.4193C59.5618 23.6337 60.0316 24.6923 60.8931 25.5944C61.7531 26.498 62.8096 26.9242 64.0211 26.9242C65.2727 26.9242 66.3278 26.498 67.1878 25.5944C68.0493 24.6923 68.4789 23.6337 68.5198 22.4193ZM70.0435 16.3463C71.6861 18.0329 72.5081 20.0668 72.5081 22.4194C72.5081 24.7705 71.6861 26.8073 70.0435 28.4537C68.3623 30.1403 66.3281 31 64.0214 31C61.7139 31 59.717 30.1403 58.0774 28.4537C56.3925 26.8073 55.5734 24.7705 55.5734 22.4194C55.5734 20.0668 56.3925 18.0329 58.0774 16.3463C59.717 14.6626 61.7139 13.8365 64.0214 13.8365C66.3281 13.8365 68.3623 14.6626 70.0435 16.3463ZM75.1777 22.6437H86.1779V19H75.1777V22.6437ZM83.0341 4.62711L73.2132 14.4638L70.6332 11.8765L80.4512 2.04275L83.0341 4.62711ZM66.3214 11.0002V-2.30475e-05L62.6777 -2.28882e-05V11.0002H66.3214Z" fill="#DA291C"/>
<path d="M91.7944 13.6592C91.7944 12.0338 92.282 10.7538 93.2573 9.81914C94.2529 8.86419 95.6853 8.38672 97.5546 8.38672C98.5705 8.38672 99.6473 8.5391 100.785 8.84387V12.684C99.6676 12.2979 98.7432 12.1049 98.0117 12.1049C96.8129 12.1049 96.2136 12.7551 96.2136 14.0554V15.6098H100.694V19.1146H96.5183V31.0007H91.7944V19.1146H90.1182V16.5546L91.7944 16.0974V13.6592Z" fill="black"/>
<path d="M107.855 15.2136V31.0007H103.131V15.2136H107.855ZM102.918 10.9468C102.918 10.256 103.131 9.71755 103.558 9.33151C104.005 8.94546 104.655 8.75244 105.508 8.75244C106.362 8.75244 107.002 8.94546 107.428 9.33151C107.855 9.71755 108.068 10.256 108.068 10.9468C108.068 11.6579 107.855 12.2065 107.428 12.5925C107.002 12.9786 106.362 13.1716 105.508 13.1716C104.655 13.1716 104.005 12.9786 103.558 12.5925C103.131 12.1862 102.918 11.6376 102.918 10.9468Z" fill="black"/>
<path d="M112 8.75244H116.724V16.9203H117.029C117.456 16.2904 118.015 15.7926 118.705 15.4269C119.396 15.0409 120.178 14.8478 121.052 14.8478C122.17 14.8478 123.165 15.1526 124.039 15.7622C124.933 16.3717 125.634 17.2758 126.142 18.4746C126.67 19.6734 126.934 21.1261 126.934 22.8328C126.934 25.6367 126.213 27.7599 124.77 29.2025C123.348 30.6451 121.316 31.3664 118.675 31.3664C117.476 31.3664 116.277 31.2343 115.079 30.9702C113.9 30.706 112.874 30.381 112 29.9949V8.75244ZM116.724 27.4044C117.537 27.6279 118.248 27.7396 118.858 27.7396C121.052 27.7396 122.149 26.2056 122.149 23.1376C122.149 21.5528 121.905 20.3743 121.418 19.6023C120.95 18.8302 120.28 18.4441 119.406 18.4441C118.594 18.4441 117.943 18.7489 117.456 19.3584C116.968 19.9477 116.724 20.7299 116.724 21.7052V27.4044Z" fill="black"/>
<path d="M134.029 15.2136L134.364 17.2555H134.639C135.167 16.5038 135.787 15.9145 136.498 15.4879C137.209 15.0612 137.94 14.8478 138.692 14.8478C139.159 14.8478 139.495 14.858 139.698 14.8783V19.5718C139.129 19.3889 138.57 19.2975 138.022 19.2975C137.412 19.2975 136.823 19.4092 136.254 19.6327C135.705 19.8562 135.208 20.161 134.761 20.547V31.0007H130.037V19.5413L129.519 15.2136H134.029Z" fill="black"/>
<path d="M150.199 29.4159H149.955C149.366 30.0254 148.695 30.5029 147.944 30.8483C147.192 31.1937 146.379 31.3664 145.505 31.3664C144.144 31.3664 143.027 30.9499 142.153 30.1168C141.279 29.2838 140.842 28.085 140.842 26.5205C140.842 24.8341 141.36 23.5846 142.397 22.7719C143.453 21.9388 144.916 21.5223 146.785 21.5223C147.436 21.5223 148.289 21.5833 149.345 21.7052V20.8213C149.345 19.2365 148.421 18.4441 146.572 18.4441C145.881 18.4441 145.129 18.5457 144.317 18.7489C143.504 18.9521 142.783 19.2061 142.153 19.5108V15.8841C143.717 15.1933 145.444 14.8478 147.334 14.8478C149.467 14.8478 151.123 15.3456 152.302 16.3412C153.48 17.3368 154.069 18.7895 154.069 20.6994V26.6424L154.588 31.0007H150.869L150.199 29.4159ZM144.896 26.3682C144.896 27.0183 145.069 27.5364 145.414 27.9225C145.759 28.2882 146.247 28.4711 146.877 28.4711C147.71 28.4711 148.543 28.1561 149.376 27.5263L149.345 27.4348V24.2043L147.639 24.1433C145.81 24.1433 144.896 24.8849 144.896 26.3682Z" fill="black"/>
</svg>
