<svg xmlns="http://www.w3.org/2000/svg" xmlns:xlink="http://www.w3.org/1999/xlink" width="172.554" height="90.141" viewBox="0 0 172.554 90.141">
  <defs>
    <clipPath id="clip-path">
      <rect id="Retângulo_876" data-name="Retângulo 876" width="65.526" height="28.152" fill="#fff"/>
    </clipPath>
  </defs>
  <g id="Grupo_5617" data-name="Grupo 5617" transform="translate(-1295.725 -1207.953)">
    <g id="Grupo_5616" data-name="Grupo 5616" transform="translate(1313 1226.426)">
      <path id="Retângulo_877" data-name="Retângulo 877" d="M6.546,0h96.814a20.948,20.948,0,0,1,20.948,20.948v0A20.948,20.948,0,0,1,103.361,41.9H6.546A6.546,6.546,0,0,1,0,35.349V6.546A6.546,6.546,0,0,1,6.546,0Z" transform="translate(6.848 5.65)" opacity="0.2"/>
      <path id="Retângulo_874" data-name="Retângulo 874" d="M6.811,0H108.163a21.8,21.8,0,0,1,21.8,21.8v0a21.8,21.8,0,0,1-21.8,21.8H6.811A6.811,6.811,0,0,1,0,36.779V6.811A6.811,6.811,0,0,1,6.811,0Z" fill="#6ad360"/>
    </g>
    <g id="Grupo_5613" data-name="Grupo 5613" transform="translate(1324.865 1234.992)">
      <path id="Caminho_3071" data-name="Caminho 3071" d="M23.136,34.291a9.958,9.958,0,0,0,4.993,1.487,8.985,8.985,0,1,0-9.059-8.985,10.161,10.161,0,0,0,1.766,5.33l-1.106,3.271Zm-5.792-7.5a10.786,10.786,0,1,1,10.785,10.7,11,11,0,0,1-5.2-1.321l-5.91,1.873,1.886-5.7a12.265,12.265,0,0,1-1.565-5.552M31.3,28.041c.363.165,2.13,1.013,2.13,1.013a.286.286,0,0,1,.228.275c0,.025,0,.055.007.09a1.841,1.841,0,0,1-.487,1.546,3.242,3.242,0,0,1-2.648.824l-.075-.021a10.249,10.249,0,0,1-4.092-2,13.586,13.586,0,0,1-2.977-3.638,3.5,3.5,0,0,1-.409-1.87,2.947,2.947,0,0,1,1.046-2.127,1.272,1.272,0,0,1,.444-.184h.85a.482.482,0,0,1,.332.275c.1.235.821,1.9.874,2.033l0,.008a.693.693,0,0,1-.034.725c-.223.286-.689.818-.689.818a.327.327,0,0,0-.025.428,8.572,8.572,0,0,0,1.459,1.783,6.969,6.969,0,0,0,2.087,1.283A.5.5,0,0,0,30,29.09l.042-.054c.172-.22.708-.892.708-.892a.426.426,0,0,1,.548-.1" transform="translate(63.989 -12.837)" fill="#fff" fill-rule="evenodd"/>
      <g id="Grupo_5612" data-name="Grupo 5612" transform="translate(0 0)">
        <path id="Caminho_3185" data-name="Caminho 3185" d="M3.714,2.036h.132L5.075,5.986H2.5ZM2.721.528,0,9.593H1.479L2.207,7.2H5.353l.727,2.39H7.625L4.89.528Z" transform="translate(0 0.054)" fill="#fff"/>
        <g id="Grupo_5611" data-name="Grupo 5611" transform="translate(0 0)">
          <g id="Grupo_5610" data-name="Grupo 5610" clip-path="url(#clip-path)">
            <path id="Caminho_3186" data-name="Caminho 3186" d="M8.417,2.963a3.156,3.156,0,0,1,1.9-.515,7.6,7.6,0,0,1,.912.059,4.452,4.452,0,0,1,.78.152V3.889a4.654,4.654,0,0,0-.88-.264,4.358,4.358,0,0,0-.865-.106,1.4,1.4,0,0,0-.8.211.693.693,0,0,0-.311.608.7.7,0,0,0,.218.542,2.281,2.281,0,0,0,.694.383l.569.211a3.806,3.806,0,0,1,1.341.74,1.629,1.629,0,0,1,.468,1.256A1.861,1.861,0,0,1,11.754,9a3,3,0,0,1-1.93.554,6.137,6.137,0,0,1-1.169-.118,3.957,3.957,0,0,1-1.011-.317V7.88a5.83,5.83,0,0,0,1.1.436,3.936,3.936,0,0,0,1.084.172,1.342,1.342,0,0,0,.854-.238.787.787,0,0,0,.3-.648.677.677,0,0,0-.225-.555,3.161,3.161,0,0,0-.793-.41L9.39,6.426a3.337,3.337,0,0,1-1.236-.734A1.667,1.667,0,0,1,7.71,4.457a1.734,1.734,0,0,1,.707-1.493" transform="translate(0.775 0.249)" fill="#fff"/>
            <path id="Caminho_3187" data-name="Caminho 3187" d="M13.72,2.963a3.156,3.156,0,0,1,1.9-.515,7.6,7.6,0,0,1,.912.059,4.452,4.452,0,0,1,.78.152V3.889a4.654,4.654,0,0,0-.88-.264,4.358,4.358,0,0,0-.865-.106,1.4,1.4,0,0,0-.8.211.693.693,0,0,0-.311.608.7.7,0,0,0,.218.542,2.281,2.281,0,0,0,.694.383l.569.211a3.806,3.806,0,0,1,1.341.74,1.629,1.629,0,0,1,.468,1.256A1.861,1.861,0,0,1,17.057,9a3,3,0,0,1-1.93.554,6.137,6.137,0,0,1-1.169-.118,3.957,3.957,0,0,1-1.011-.317V7.88a5.83,5.83,0,0,0,1.1.436,3.936,3.936,0,0,0,1.084.172,1.342,1.342,0,0,0,.854-.238.787.787,0,0,0,.3-.648.677.677,0,0,0-.225-.555,3.161,3.161,0,0,0-.793-.41l-.567-.211a3.337,3.337,0,0,1-1.236-.734,1.667,1.667,0,0,1-.444-1.236,1.734,1.734,0,0,1,.707-1.493" transform="translate(1.312 0.249)" fill="#fff"/>
            <path id="Caminho_3188" data-name="Caminho 3188" d="M18.854.351a.941.941,0,0,1,.667-.219.913.913,0,0,1,.661.219.774.774,0,0,1,.225.588.781.781,0,0,1-.225.588.912.912,0,0,1-.661.217.953.953,0,0,1-.674-.21.779.779,0,0,1-.225-.595.766.766,0,0,1,.231-.588m1.421,9.283h-1.52V2.84h1.52Z" transform="translate(1.888 0.014)" fill="#fff"/>
            <path id="Caminho_3189" data-name="Caminho 3189" d="M23.306,2.607l.145.833h.132a3.392,3.392,0,0,1,.965-.714,2.592,2.592,0,0,1,1.176-.278,1.9,1.9,0,0,1,1.441.568,2.111,2.111,0,0,1,.542,1.52V9.4h-1.52V4.972a1.213,1.213,0,0,0-.3-.872,1.1,1.1,0,0,0-.833-.317,1.877,1.877,0,0,0-.76.165,2.5,2.5,0,0,0-.682.443V9.4H22.09V4.3l-.238-1.692Z" transform="translate(2.215 0.249)" fill="#fff"/>
            <path id="Caminho_3190" data-name="Caminho 3190" d="M32.922,9.452a5.811,5.811,0,0,1-1.064.106,2.993,2.993,0,0,1-2.405-.97,3.9,3.9,0,0,1-.833-2.625A3.949,3.949,0,0,1,29.393,3.4a2.616,2.616,0,0,1,2.148-.95,2.571,2.571,0,0,1,2.075.891,3.748,3.748,0,0,1,.753,2.491,4.815,4.815,0,0,1-.04.622H30.074a2.211,2.211,0,0,0,.515,1.454,1.871,1.871,0,0,0,1.441.515,4.819,4.819,0,0,0,.978-.106,4.567,4.567,0,0,0,.938-.3v1.15a5.059,5.059,0,0,1-1.024.29m.073-3.937V5.422a2.374,2.374,0,0,0-.363-1.374,1.209,1.209,0,0,0-1.064-.529,1.179,1.179,0,0,0-1.117.6,3.141,3.141,0,0,0-.377,1.4Z" transform="translate(2.901 0.249)" fill="#fff"/>
            <path id="Caminho_3191" data-name="Caminho 3191" d="M38.93,2.607l.159.912h.132a2.689,2.689,0,0,1,.819-.773,2.17,2.17,0,0,1,1.15-.3,2.211,2.211,0,0,1,1.335.423,2.7,2.7,0,0,1,.9,1.2A4.819,4.819,0,0,1,43.741,5.9a4.5,4.5,0,0,1-.4,1.989,2.877,2.877,0,0,1-1.11,1.248,3.067,3.067,0,0,1-1.606.423,2.77,2.77,0,0,1-1.388-.343v2.828h-1.52V4.3l-.238-1.692ZM40.5,8.369a1.428,1.428,0,0,0,1.269-.628,3.109,3.109,0,0,0,.423-1.751,3.338,3.338,0,0,0-.377-1.738A1.228,1.228,0,0,0,40.7,3.637a1.313,1.313,0,0,0-1.064.488,2,2,0,0,0-.4,1.31v2.6a2.686,2.686,0,0,0,1.269.33" transform="translate(3.799 0.249)" fill="#fff"/>
            <path id="Caminho_3192" data-name="Caminho 3192" d="M48.521,9.452a5.811,5.811,0,0,1-1.064.106,2.993,2.993,0,0,1-2.405-.97,3.9,3.9,0,0,1-.833-2.625A3.949,3.949,0,0,1,44.992,3.4a2.616,2.616,0,0,1,2.148-.95,2.571,2.571,0,0,1,2.075.891,3.748,3.748,0,0,1,.753,2.491,4.815,4.815,0,0,1-.04.622H45.673a2.211,2.211,0,0,0,.515,1.454,1.871,1.871,0,0,0,1.441.515,4.819,4.819,0,0,0,.978-.106,4.567,4.567,0,0,0,.938-.3v1.15a5.058,5.058,0,0,1-1.024.29m.073-3.937V5.422a2.374,2.374,0,0,0-.363-1.374,1.209,1.209,0,0,0-1.064-.529,1.179,1.179,0,0,0-1.117.6,3.141,3.141,0,0,0-.377,1.4Z" transform="translate(4.482 0.249)" fill="#fff"/>
            <rect id="Retângulo_875" data-name="Retângulo 875" width="1.52" height="9.648" transform="translate(56.101)" fill="#fff"/>
            <path id="Caminho_3193" data-name="Caminho 3193" d="M54.645,8.595A3.852,3.852,0,0,1,53.819,6a3.851,3.851,0,0,1,.826-2.59,3.231,3.231,0,0,1,4.606,0A3.876,3.876,0,0,1,60.069,6a3.878,3.878,0,0,1-.818,2.592,3.234,3.234,0,0,1-4.606,0m1.1-.847a1.3,1.3,0,0,0,1.189.621,1.313,1.313,0,0,0,1.2-.621A3.335,3.335,0,0,0,58.524,6a3.292,3.292,0,0,0-.39-1.745,1.314,1.314,0,0,0-1.2-.62,1.3,1.3,0,0,0-1.189.62A3.327,3.327,0,0,0,55.364,6a3.324,3.324,0,0,0,.384,1.745" transform="translate(5.455 0.249)" fill="#fff"/>
            <path id="Caminho_3194" data-name="Caminho 3194" d="M1.669,14.928l1.837,7.6h.159l1.784-7.6H7.668l1.772,7.6H9.6l1.837-7.6h1.4L10.55,23.994H8.423L6.6,16.356H6.414L4.589,23.994H2.4L.1,14.928Z" transform="translate(0.01 -0.659)" fill="#fff"/>
            <path id="Caminho_3195" data-name="Caminho 3195" d="M14.5,14.4v3.542h.067a3.581,3.581,0,0,1,.977-.615,2.835,2.835,0,0,1,1.124-.231,1.876,1.876,0,0,1,1.4.535,2.02,2.02,0,0,1,.53,1.487v4.93h-1.52V19.62a1.207,1.207,0,0,0-.305-.872,1.1,1.1,0,0,0-.832-.317,1.882,1.882,0,0,0-.761.165,2.514,2.514,0,0,0-.681.443v5.009h-1.52V14.4Z" transform="translate(1.316 -0.713)" fill="#fff"/>
            <path id="Caminho_3196" data-name="Caminho 3196" d="M23.457,23.06h-.093a2.817,2.817,0,0,1-.884.661,2.478,2.478,0,0,1-1.072.238,1.943,1.943,0,0,1-1.427-.535,2,2,0,0,1-.542-1.487,1.876,1.876,0,0,1,.687-1.586,3.1,3.1,0,0,1,1.93-.529,8.2,8.2,0,0,1,1.137.079v-.608a1.222,1.222,0,0,0-.343-.933,1.419,1.419,0,0,0-1-.323,4.154,4.154,0,0,0-.992.132,4.212,4.212,0,0,0-.912.33V17.311a4.589,4.589,0,0,1,1-.337,5.225,5.225,0,0,1,1.143-.126,2.814,2.814,0,0,1,1.943.615,2.261,2.261,0,0,1,.687,1.778v2.868L24.95,23.8H23.722ZM21.045,22.7a1,1,0,0,0,.76.284,2.045,2.045,0,0,0,1.4-.608l-.013-.04V20.76q-.489-.04-.925-.04-1.493,0-1.493,1.176a1.112,1.112,0,0,0,.271.8" transform="translate(1.97 -0.465)" fill="#fff"/>
            <path id="Caminho_3197" data-name="Caminho 3197" d="M26.232,18.289h-.78V17.4l.833-.171.463-1.824h1v1.745h1.956v1.137H27.752V21.95a1.052,1.052,0,0,0,.2.674.681.681,0,0,0,.568.251,2.792,2.792,0,0,0,1.189-.278v1.228a3.457,3.457,0,0,1-.747.206,4.874,4.874,0,0,1-.813.072,1.766,1.766,0,0,1-1.916-1.89Z" transform="translate(2.58 -0.611)" fill="#fff"/>
            <path id="Caminho_3198" data-name="Caminho 3198" d="M30.868,17.363a3.156,3.156,0,0,1,1.9-.515,7.6,7.6,0,0,1,.912.059,4.452,4.452,0,0,1,.78.152v1.229a4.653,4.653,0,0,0-.88-.264,4.358,4.358,0,0,0-.865-.106,1.4,1.4,0,0,0-.8.21.766.766,0,0,0-.093,1.151,2.3,2.3,0,0,0,.694.383l.569.21a3.824,3.824,0,0,1,1.341.741,1.629,1.629,0,0,1,.468,1.256,1.86,1.86,0,0,1-.687,1.532,3,3,0,0,1-1.93.555,6.137,6.137,0,0,1-1.169-.118,3.957,3.957,0,0,1-1.011-.317V22.28a5.755,5.755,0,0,0,1.1.435,3.9,3.9,0,0,0,1.084.173,1.348,1.348,0,0,0,.854-.238.789.789,0,0,0,.3-.648.677.677,0,0,0-.225-.555,3.161,3.161,0,0,0-.793-.41l-.567-.211a3.337,3.337,0,0,1-1.236-.734,1.667,1.667,0,0,1-.444-1.237,1.733,1.733,0,0,1,.707-1.492" transform="translate(3.051 -0.465)" fill="#fff"/>
            <path id="Caminho_3199" data-name="Caminho 3199" d="M41.251,23.994,40.524,21.6H37.378l-.728,2.391H35.171l2.721-9.066h2.169L42.8,23.994Zm-1-3.607-1.229-3.953h-.132l-1.217,3.953Z" transform="translate(3.565 -0.659)" fill="#fff"/>
            <path id="Caminho_3200" data-name="Caminho 3200" d="M44.545,17.008l.159.912h.132a2.676,2.676,0,0,1,.819-.773,2.17,2.17,0,0,1,1.15-.3,2.211,2.211,0,0,1,1.335.423,2.7,2.7,0,0,1,.9,1.2,4.815,4.815,0,0,1,.317,1.824,4.5,4.5,0,0,1-.4,1.989,2.877,2.877,0,0,1-1.11,1.248,3.067,3.067,0,0,1-1.606.423,2.77,2.77,0,0,1-1.388-.343v2.828h-1.52V18.7l-.238-1.692Zm1.573,5.762a1.428,1.428,0,0,0,1.269-.628,3.109,3.109,0,0,0,.423-1.751,3.338,3.338,0,0,0-.377-1.738,1.229,1.229,0,0,0-1.117-.616,1.314,1.314,0,0,0-1.064.489,2,2,0,0,0-.4,1.31v2.6a2.674,2.674,0,0,0,1.269.332" transform="translate(4.368 -0.465)" fill="#fff"/>
            <path id="Caminho_3201" data-name="Caminho 3201" d="M51.517,17.008l.16.912h.131a2.68,2.68,0,0,1,.821-.773,2.167,2.167,0,0,1,1.15-.3,2.205,2.205,0,0,1,1.334.423,2.7,2.7,0,0,1,.9,1.2,4.816,4.816,0,0,1,.316,1.824,4.5,4.5,0,0,1-.4,1.989,2.877,2.877,0,0,1-1.11,1.248,3.067,3.067,0,0,1-1.606.423,2.77,2.77,0,0,1-1.388-.343v2.828H50.3V18.7l-.238-1.692Zm1.574,5.762a1.428,1.428,0,0,0,1.269-.628,3.11,3.11,0,0,0,.422-1.751,3.339,3.339,0,0,0-.376-1.738,1.23,1.23,0,0,0-1.117-.616,1.313,1.313,0,0,0-1.064.489,2,2,0,0,0-.4,1.31v2.6a2.671,2.671,0,0,0,1.269.332" transform="translate(5.075 -0.465)" fill="#fff"/>
          </g>
        </g>
      </g>
    </g>
  </g>
</svg>
