<svg xmlns="http://www.w3.org/2000/svg" xmlns:xlink="http://www.w3.org/1999/xlink" width="24.558" height="24.558" viewBox="0 0 24.558 24.558">
  <defs>
    <clipPath id="clip-path">
      <rect id="Retângulo_432" data-name="Retângulo 432" width="24.558" height="24.558" fill="none"/>
    </clipPath>
  </defs>
  <g id="Grupo_3810" data-name="Grupo 3810" clip-path="url(#clip-path)">
    <path id="Caminho_1458" data-name="Caminho 1458" d="M11.965,1.645a9.262,9.262,0,1,1,.448,18.519c-2.664.064-8.685-.129-8.685-.129S2.963,13.587,2.9,11.13a9.275,9.275,0,0,1,9.061-9.484" transform="translate(0.375 0.716)" fill="#2fd74d"/>
    <path id="Caminho_1459" data-name="Caminho 1459" d="M5.96,17.7a9.726,9.726,0,0,0,4.869,1.446A8.74,8.74,0,1,0,1.995,10.4a9.87,9.87,0,0,0,1.722,5.184L2.639,18.77ZM.312,10.4A10.461,10.461,0,0,1,10.828,0,10.461,10.461,0,0,1,21.346,10.4a10.461,10.461,0,0,1-10.517,10.4,10.742,10.742,0,0,1-5.066-1.285L0,21.346l1.838-5.54A11.907,11.907,0,0,1,.312,10.4m13.609,1.214c.353.16,2.077.986,2.077.986a.277.277,0,0,1,.221.267c0,.024,0,.054.008.088a1.79,1.79,0,0,1-.475,1.5,3.168,3.168,0,0,1-2.582.8l-.074-.021A10.011,10.011,0,0,1,9.106,13.3,13.247,13.247,0,0,1,6.2,9.763a3.393,3.393,0,0,1-.4-1.819,2.866,2.866,0,0,1,1.02-2.07A1.242,1.242,0,0,1,7.257,5.7h.828a.471.471,0,0,1,.324.267c.1.229.8,1.853.853,1.978l0,.008a.671.671,0,0,1-.033.705c-.218.277-.672.8-.672.8a.318.318,0,0,0-.024.416A8.371,8.371,0,0,0,9.958,11.6a6.8,6.8,0,0,0,2.035,1.247.483.483,0,0,0,.662-.208l.04-.053c.168-.213.691-.867.691-.867a.417.417,0,0,1,.535-.1" transform="translate(1.454 1.327)" fill="#fefefe" fill-rule="evenodd"/>
  </g>
</svg>
