<svg xmlns="http://www.w3.org/2000/svg" width="126.252" height="25.3" viewBox="0 0 126.252 25.3">
  <g id="Grupo_5601" data-name="Grupo 5601" transform="translate(417.579 -10076.714)">
    <g id="mcafee" transform="translate(-843.474 8668.33)">
      <path id="Caminho_1750" data-name="Caminho 1750" d="M.069,33.663V13.44L8.78,20.018l8.712-6.578V33.663H13.047V22.107l-4.311,3.2-4.311-3.2V33.663H.069Zm78-7.067v1.022H67.006A3.669,3.669,0,0,0,70.561,30.2a4.049,4.049,0,0,0,3.022-1.333l3.333,1.822a8.4,8.4,0,0,1-6.267,3.022h0a7.564,7.564,0,1,1,0-15.112,7.68,7.68,0,0,1,7.467,8.045Zm5.556,1.022H94.7V26.6a7.68,7.68,0,0,0-7.467-8.045,7.564,7.564,0,1,0,0,15.112h0A8.4,8.4,0,0,0,93.5,30.641l-3.333-1.822a4.049,4.049,0,0,1-3.022,1.333,3.669,3.669,0,0,1-3.556-2.578Zm3.245-5.511a3.471,3.471,0,0,1,3.289,2.178H83.718a3.257,3.257,0,0,1,3.156-2.178Zm-16.668,0a3.471,3.471,0,0,1,3.289,2.178H67.05A3.257,3.257,0,0,1,70.206,22.107ZM60.25,17.529a2.663,2.663,0,0,1,1.156.222l.444.178,1.689-3.689-.489-.178a7.432,7.432,0,0,0-2.533-.444,5.784,5.784,0,0,0-4.4,1.733,5.858,5.858,0,0,0-1.422,3.911v1.6H52.872v3.778h1.778v9.023h4.089V24.641h2.667V20.863H58.739V19.085a1.534,1.534,0,0,1,1.467-1.6ZM44.471,13.618l8.312,20.134H48.116L46.738,30.33H39.76l-1.378,3.422H33.715L41.4,16.285l-1.111-2.667h4.134Zm.711,12.667-1.867-4.711L41.4,26.285ZM33.671,30.241l.267-.4-3.378-2-.267.4a3.563,3.563,0,0,1-3.111,1.822,3.911,3.911,0,1,1,0-7.823,3.474,3.474,0,0,1,3.111,1.822l.267.4,3.378-2-.311-.444a7.35,7.35,0,0,0-6.445-3.467,7.606,7.606,0,1,0,0,15.2,7.636,7.636,0,0,0,6.445-3.467Z" transform="translate(457.451 1394.944)" fill="#e3262e" fill-rule="evenodd"/>
      <path id="Caminho_1751" data-name="Caminho 1751" d="M17.146,17.329V7.046l-6.5,2.995V5.086L21.637,0V20.213L10.65,25.3V20.345l6.5-2.995Z" transform="translate(426.232 1408.384)" fill="#e3262e" fill-rule="evenodd"/>
      <path id="Caminho_1752" data-name="Caminho 1752" d="M10.152,17.329V7.046l6.5,2.995V5.086L5.66,0V20.213L16.647,25.3V20.345l-6.5-2.995Z" transform="translate(420.235 1408.384)" fill="#e3262e" fill-rule="evenodd"/>
    </g>
  </g>
</svg>
