<svg xmlns="http://www.w3.org/2000/svg" width="264.837" height="41.99" viewBox="0 0 264.837 41.99">
  <g id="Grupo_6423" data-name="Grupo 6423" transform="translate(-565 -2436.808)">
    <g id="OOKLA" transform="translate(696.206 2440.492)">
      <g id="Grupo_3702" transform="translate(0 19.937)">
        <path id="Caminho_1344" d="M31.65,39.531l1.339-1.6a5.853,5.853,0,0,0,4,1.649c1.377,0,2.24-.651,2.24-1.6V37.95c0-.9-.507-1.4-2.853-1.937-2.694-.651-4.215-1.445-4.215-3.776V32.2c0-2.172,1.816-3.67,4.32-3.67a7.008,7.008,0,0,1,4.593,1.6l-1.188,1.687A5.72,5.72,0,0,0,36.44,30.5c-1.309,0-2.066.673-2.066,1.5v.038c0,.984.575,1.407,3.027,1.982,2.679.651,4.056,1.6,4.056,3.708v.038c0,2.368-1.861,3.776-4.525,3.776a7.679,7.679,0,0,1-5.274-2.02" transform="translate(-7.695 -26.88)"/>
        <path id="Caminho_1345" d="M51.912,35.363c1.687,0,2.724-.938,2.724-2.262v-.038c0-1.475-1.059-2.262-2.724-2.262H49.325v4.563Zm-4.8-6.583h4.986c2.966,0,4.812,1.687,4.812,4.23v.038c0,2.837-2.278,4.32-5.054,4.32h-2.52v4.078H47.1V28.788Z" transform="translate(-11.454 -26.941)"/>
        <path id="Caminho_1346" d="M62.6,28.775h9.375v1.982H64.817v3.291h6.348v2H64.817v3.39h7.249v1.982H62.6V28.76Z" transform="translate(-15.226 -26.936)"/>
        <path id="Caminho_1347" d="M78.12,28.775h9.39v1.982H80.352v3.291H86.7v2H80.352v3.39H87.6v1.982H78.12V28.76Z" transform="translate(-19.003 -26.936)"/>
        <path id="Caminho_1348" d="M95.892,30.8v8.6h2.5a4.133,4.133,0,0,0,4.4-3.851,3.952,3.952,0,0,0,0-.424V35.09A4.153,4.153,0,0,0,98.8,30.778h-.409l-2.5.015h0ZM93.66,28.78h4.721c3.988,0,6.734,2.724,6.734,6.3v.038c0,3.571-2.747,6.326-6.734,6.326H93.66Z" transform="translate(-22.785 -26.941)"/>
        <path id="Caminho_1349" d="M114.448,30.846H110.43V28.78h10.275v2.066h-4.018V41.431h-2.24Z" transform="translate(-26.866 -26.941)"/>
        <path id="Caminho_1350" d="M127.11,28.775h9.39v1.982h-7.158v3.291h6.348v2h-6.348v3.39h7.249v1.982H127.11V28.76Z" transform="translate(-30.925 -26.936)"/>
        <path id="Caminho_1351" d="M142.01,39.531l1.339-1.6a5.852,5.852,0,0,0,4,1.649c1.377,0,2.24-.651,2.24-1.6V37.95c0-.9-.507-1.4-2.853-1.937-2.694-.651-4.215-1.445-4.215-3.776V32.2c0-2.172,1.816-3.67,4.32-3.67a7.009,7.009,0,0,1,4.593,1.6l-1.188,1.687A5.72,5.72,0,0,0,146.8,30.5c-1.3,0-2.066.673-2.066,1.5v.038c0,.984.575,1.407,3.027,1.982,2.679.651,4.056,1.6,4.056,3.708v.038c0,2.368-1.861,3.776-4.525,3.776a7.711,7.711,0,0,1-5.281-2.02" transform="translate(-34.551 -26.88)"/>
        <path id="Caminho_1352" d="M160.908,30.846H156.89V28.78h10.275v2.066h-4.018V41.431h-2.24Z" transform="translate(-38.172 -26.941)"/>
        <path id="Caminho_1353" d="M15.191,41.551a8.9,8.9,0,1,0-12.591,0h0L3.872,40.28a7.105,7.105,0,1,1,10.048-.008l1.256,1.271h0Z" transform="translate(0.01 -26.35)" fill-rule="evenodd"/>
        <path id="Caminho_1354" d="M10.941,38.558,9.36,36.976l5.062-4.426.946.946L10.941,38.55Z" transform="translate(-2.27 -27.859)" fill-rule="evenodd"/>
      </g>
      <path id="Caminho_1355" d="M62.532,13.494,56.63,7.63V8.667l4.858,4.843Z" transform="translate(-13.774 -1.857)"/>
      <path id="Caminho_1356" d="M61.056,13.986,56.63,9.59v1.052L60,13.994h1.052Z" transform="translate(-13.774 -2.334)"/>
      <path id="Caminho_1357" d="M59.561,14.47,56.64,11.58l.015,1.029,1.869,1.861Z" transform="translate(-13.776 -2.819)"/>
      <path id="Caminho_1358" d="M62.936,4.979,62.92,3.95,58.88,8.013l.522.522Z" transform="translate(-14.321 -0.962)"/>
      <path id="Caminho_1359" d="M64.153,0,57.88,6.318l.522.522,5.766-5.8Z" transform="translate(-14.078 -0.001)"/>
      <path id="Caminho_1360" d="M62.421.01,56.89,5.579l.522.522,5.024-5.054L62.421.018Z" transform="translate(-13.837 -0.003)"/>
      <path id="Caminho_1361" d="M32.45,9.18a3.972,3.972,0,1,1,3.988,4A3.886,3.886,0,0,1,32.45,9.4V9.18M39.3,9.157a2.944,2.944,0,1,0,0,.2v-.2" transform="translate(-7.89 -1.273)"/>
      <path id="Caminho_1362" d="M43.54,9.14a3.972,3.972,0,1,1,3.988,4A3.886,3.886,0,0,1,43.54,9.359V9.14m6.848-.015a2.944,2.944,0,1,0,0,.2v-.2" transform="translate(-10.588 -1.264)"/>
      <path id="Caminho_1363" d="M64.83,5.31h1.029l.023,6.651h3.8v.961H64.853Z" transform="translate(-15.769 -1.293)"/>
      <path id="Caminho_1364" d="M75.4,6.614h-.023l-2.542,6.3H71.67L74.855,5.29h1.12L79.138,12.9H77.973L75.4,6.622Z" transform="translate(-17.434 -1.288)"/>
      <path id="Caminho_1365" d="M54.793,12.959h1.037L55.807,5.34H54.77Z" transform="translate(-13.321 -1.3)"/>
      <path id="Caminho_1366" d="M80.4,4.224h.219a.448.448,0,0,0,.219-.053c.053-.023.053-.076.053-.121a.147.147,0,0,0-.023-.1l-.076-.076a1,1,0,0,0-.2-.023h-.219l.023.371h0Zm-.174.658V3.71h.416a.973.973,0,0,1,.3.023.184.184,0,0,1,.144.121.235.235,0,0,1,.045.174.252.252,0,0,1-.1.219.3.3,0,0,1-.242.1.486.486,0,0,1,.1.076,1.778,1.778,0,0,1,.174.242l.144.219h-.219l-.1-.2a.632.632,0,0,0-.2-.272.332.332,0,0,0-.144-.053h-.121v.492l-.2.023h0Zm.469-1.513a.912.912,0,0,0-.439.121.779.779,0,0,0-.34.34,1,1,0,0,0-.121.462.922.922,0,0,0,.462.787.94.94,0,0,0,.923,0,.919.919,0,0,0,.34-.34.94.94,0,0,0,0-.923.779.779,0,0,0-.34-.34,1.19,1.19,0,0,0-.492-.1m.008-.2a1.119,1.119,0,0,1,.537.144,1.042,1.042,0,0,1,.416.393,1.119,1.119,0,0,1,.144.537,1.1,1.1,0,0,1-.144.537A1.079,1.079,0,1,1,79.763,3.74a1.1,1.1,0,0,1,.416-.416,1.219,1.219,0,0,1,.515-.144" transform="translate(-19.367 -0.774)"/>
      <path id="Caminho_1378" d="M173.692,29.623h.3a.594.594,0,0,0,.3-.068c.068-.03.068-.1.068-.166a.214.214,0,0,0-.03-.136l-.1-.1a1.44,1.44,0,0,0-.272-.03h-.3l.03.507h0Zm-.235.916V28.919h.575a1.244,1.244,0,0,1,.409.03.271.271,0,0,1,.2.166.33.33,0,0,1,.068.235.317.317,0,0,1-.136.3.39.39,0,0,1-.34.136.449.449,0,0,1,.136.1,1.707,1.707,0,0,1,.235.34l.2.3h-.3l-.136-.272a.947.947,0,0,0-.272-.371.332.332,0,0,0-.2-.068h-.166v.673l-.272.03h0Zm.643-2.1a1.422,1.422,0,0,0-.605.166,1.08,1.08,0,0,0-.469.469,1.356,1.356,0,0,0-.166.643A1.273,1.273,0,0,0,173.5,30.8a1.356,1.356,0,0,0,.643.166,1.559,1.559,0,0,0,.643-.166,1.215,1.215,0,0,0,.469-.469,1.356,1.356,0,0,0,.166-.643,1.558,1.558,0,0,0-.166-.643,1.043,1.043,0,0,0-.469-.469,1.727,1.727,0,0,0-.673-.136m-.008-.272a1.518,1.518,0,0,1,.741.2,1.455,1.455,0,0,1,.575.537,1.6,1.6,0,0,1,.2.742,1.611,1.611,0,0,1-.749,1.317,1.493,1.493,0,0,1-2.066-2.02,1.5,1.5,0,0,1,.575-.575,1.677,1.677,0,0,1,.711-.2" transform="translate(-41.998 -6.856)"/>
    </g>
    <line id="Linha_72" data-name="Linha 72" y2="30" transform="translate(668.206 2445.631)" fill="none" stroke="#707070" stroke-width="2"/>
    <g id="Grupo_5885" data-name="Grupo 5885" transform="translate(13976.831 -5472.229)">
      <g id="Grupo_5883" data-name="Grupo 5883" transform="translate(-13411.831 7909.038)">
        <g id="Grupo_3668" data-name="Grupo 3668" transform="translate(0 0)">
          <g id="Grupo_3613" data-name="Grupo 3613">
            <path id="Caminho_1784" data-name="Caminho 1784" d="M347.959,155.571a2.535,2.535,0,0,0-1.855-.771,2.457,2.457,0,0,0-1.834.771,2.548,2.548,0,0,0-.771,1.875,2.669,2.669,0,0,0,2.6,2.646,2.555,2.555,0,0,0,1.855-.792,2.53,2.53,0,0,0,.75-1.855,2.611,2.611,0,0,0-.75-1.875m-.875,2.855a1.322,1.322,0,0,1-.979.417,1.18,1.18,0,0,1-.959-.417,1.357,1.357,0,0,1-.417-.979,1.29,1.29,0,0,1,.417-.979,1.216,1.216,0,0,1,.959-.4,1.232,1.232,0,0,1,.979.4,1.387,1.387,0,0,1,.4.979,1.337,1.337,0,0,1-.4.979" transform="translate(-294.967 -150.549)"/>
            <path id="Caminho_1785" data-name="Caminho 1785" d="M264.73,148.6a2.88,2.88,0,0,0-2.271.959,3.27,3.27,0,0,0,0,4.626,3.216,3.216,0,0,0,4.23.271,3.232,3.232,0,0,0,1.125-1.73H266.5a2.48,2.48,0,0,1-.708.834,1.992,1.992,0,0,1-2.48-.271,1.936,1.936,0,0,1-.583-1.417,1.828,1.828,0,0,1,.583-1.417,1.9,1.9,0,0,1,1.417-.583,1.787,1.787,0,0,1,1.063.333,2.112,2.112,0,0,1,.708.834h1.313a3.232,3.232,0,0,0-1.125-1.73,3.024,3.024,0,0,0-1.959-.708" transform="translate(-230.055 -145.637)"/>
            <path id="Caminho_1786" data-name="Caminho 1786" d="M306.63,154.79a2,2,0,0,0-1.771.667,2.1,2.1,0,0,0-.354,1.1h1.25a.848.848,0,0,1,.188-.458.793.793,0,0,1,.667-.25,1.006,1.006,0,0,1,.6.125.421.421,0,0,1,.208.417.461.461,0,0,1-.292.4l-.959.167a2.89,2.89,0,0,0-1.084.333,1.455,1.455,0,0,0-.688,1.354,1.339,1.339,0,0,0,.417,1.063,1.717,1.717,0,0,0,1.021.354,2.464,2.464,0,0,0,1.6-.521v.521h1.25v-3.688a1.3,1.3,0,0,0-.625-1.25,2.538,2.538,0,0,0-1.438-.333m.521,2.834.229-.125v.5a1.033,1.033,0,0,1-.354.9,1.372,1.372,0,0,1-.792.25.652.652,0,0,1-.313-1.209,2,2,0,0,1,.583-.167l.646-.146Z" transform="translate(-264.015 -150.539)"/>
            <rect id="Retângulo_632" data-name="Retângulo 632" width="1.25" height="6.543" transform="translate(38.405 2.959)"/>
            <path id="Caminho_1787" data-name="Caminho 1787" d="M331.184,155.125a1.917,1.917,0,0,0-.9.708v-.625l-1.188-.021v5.022h1.25v-2.4a1.539,1.539,0,0,1,.167-.875,1.067,1.067,0,0,1,.438-.479,1.163,1.163,0,0,1,.688-.208l.375.021L332,155l-.313.021-.5.1Z" transform="translate(-283.568 -150.707)"/>
            <rect id="Retângulo_633" data-name="Retângulo 633" width="4.272" height="1.125" transform="translate(53.181 3.652) rotate(-45.041)"/>
            <rect id="Retângulo_634" data-name="Retângulo 634" width="1.125" height="3.251" transform="translate(50.742)"/>
            <rect id="Retângulo_635" data-name="Retângulo 635" width="3.313" height="1.125" transform="translate(54.534 5.71)"/>
            <path id="Caminho_1788" data-name="Caminho 1788" d="M124.042,187.947a14.579,14.579,0,0,1-7.564-2.251c-4.4-2.709-5.731-7.939-5.793-8.169a2.591,2.591,0,0,1,1.771-3.147,2.445,2.445,0,0,1,3,1.855,9.344,9.344,0,0,0,3.522,5.022c1.6,1,7.21,3.772,11.378-2.167a9.451,9.451,0,0,0-2.792-13.462,6.778,6.778,0,0,0-6.731.1c-2.584,1.813-4.522,1-5.23.542-.709-.438-2.313-1.813-2-5.085l.458-5A7.927,7.927,0,0,1,121.624,149h12.191a2.587,2.587,0,0,1,0,5.168H121.666A2.868,2.868,0,0,0,119,156.689l-.417,4.459a11.5,11.5,0,0,1,11.232-.125,14.2,14.2,0,0,1,6.835,9.419,14.449,14.449,0,0,1-2.313,11.711c-2.98,4.23-6.71,5.793-10.294,5.793" transform="translate(-110.601 -145.958)"/>
            <path id="Caminho_1789" data-name="Caminho 1789" d="M272.726,225.207a17.006,17.006,0,0,1-3.522-.417c-6.877-1.438-10.107-8.544-10.211-14.524a14.878,14.878,0,0,1,4.084-10.628,12.441,12.441,0,0,1,9.877-3.543,10.7,10.7,0,0,1,9.773,6.773,2.631,2.631,0,0,1-1.292,3.4,2.439,2.439,0,0,1-3.251-1.355c-.917-2.25-2.792-3.48-5.543-3.647a7.7,7.7,0,0,0-6.168,2.1,9.582,9.582,0,0,0-2.563,6.835c.063,3.98,2.042,8.669,6.252,9.544,5.105,1.063,6.752-1.1,7.544-2.146a4.277,4.277,0,0,0,.75-1.771l-5.085-.063a2.577,2.577,0,0,1,.021-5.147h.021l6.043.083a4.2,4.2,0,0,1,4.022,4.168,10.164,10.164,0,0,1-1.959,5.96,10.653,10.653,0,0,1-8.794,4.376" transform="translate(-228.069 -183.218)"/>
            <path id="Caminho_1790" data-name="Caminho 1790" d="M406.22,241.285H402.2a.735.735,0,0,1-.75-.75v-4.043a1.792,1.792,0,0,0-3.584,0v4.043a.721.721,0,0,1-.729.75h-4.043a1.792,1.792,0,0,0,0,3.584h4.043a.714.714,0,0,1,.729.729v4.064a1.792,1.792,0,0,0,3.584,0V245.6a.728.728,0,0,1,.75-.729h4.022a1.792,1.792,0,1,0,0-3.584" transform="translate(-332.807 -213.799)"/>
          </g>
        </g>
      </g>
    </g>
  </g>
</svg>
