<svg xmlns="http://www.w3.org/2000/svg" width="162.593" height="31.092" viewBox="0 0 162.593 31.092"><g transform="translate(-0.96)"><path d="M55.089,14.06l-1.568.432A6.505,6.505,0,0,0,50.626,16.8V14.725l-3.872-.037v16.3h4.028v-7.8a5.813,5.813,0,0,1,.512-2.863A3.809,3.809,0,0,1,52.7,18.764a3.926,3.926,0,0,1,2.229-.708l1.249.081-.037-4.157ZM23.563,31h4.068V9.76H23.563ZM39.755,22.72l-.781.427-2.034.51a5.416,5.416,0,0,0-1.917.549,2.035,2.035,0,0,0-.978,1.844,2.032,2.032,0,0,0,.587,1.607,2.231,2.231,0,0,0,1.446.468,4.288,4.288,0,0,0,2.543-.823,3.438,3.438,0,0,0,1.133-2.937Zm4.266-3.683V31.03H39.95V29.343a7.929,7.929,0,0,1-5.238,1.687,5.225,5.225,0,0,1-3.327-1.137,4.375,4.375,0,0,1-1.367-3.486,4.608,4.608,0,0,1,2.227-4.43,9.863,9.863,0,0,1,3.52-1.06l3.13-.507a1.352,1.352,0,0,0,.938-1.254,1.47,1.47,0,0,0-.7-1.372,3.578,3.578,0,0,0-1.992-.393,2.421,2.421,0,0,0-2.153.787,2.617,2.617,0,0,0-.586,1.488H30.33A6.47,6.47,0,0,1,31.5,16.1c1.095-1.45,3.011-2.2,5.75-2.155A9.442,9.442,0,0,1,41.983,15C43.312,15.707,44.021,17.077,44.021,19.037ZM11.439,13.888a6.244,6.244,0,0,1,3.482,1.059,7.045,7.045,0,0,1,2.308,2.7h4.263a10.474,10.474,0,0,0-3.677-5.6,9.767,9.767,0,0,0-6.375-2.2,9.607,9.607,0,0,0-7.391,3.095A10.158,10.158,0,0,0,.96,20.431a10.306,10.306,0,0,0,3.088,7.524,10,10,0,0,0,7.391,3.057,10.18,10.18,0,0,0,6.375-2.157,10.633,10.633,0,0,0,3.677-5.6H17.228a7.339,7.339,0,0,1-2.308,2.7,6.52,6.52,0,0,1-3.482,1.021,6.254,6.254,0,0,1-4.575-1.924,6.1,6.1,0,0,1-1.876-4.622,6.105,6.105,0,0,1,1.876-4.622A6.261,6.261,0,0,1,11.439,13.888ZM69.48,22.419a4.673,4.673,0,0,0-1.294-3.213,4.154,4.154,0,0,0-3.2-1.293,4,4,0,0,0-3.128,1.293,4.375,4.375,0,0,0-1.331,3.213,4.488,4.488,0,0,0,1.331,3.175,4.389,4.389,0,0,0,6.295,0A4.668,4.668,0,0,0,69.48,22.419ZM71,16.346a8.411,8.411,0,0,1,2.465,6.073A8.554,8.554,0,0,1,64.981,31a8.027,8.027,0,0,1-5.944-2.546,8.133,8.133,0,0,1-2.5-6.034,8.28,8.28,0,0,1,2.5-6.073,8,8,0,0,1,5.944-2.51A8.242,8.242,0,0,1,71,16.346Zm5.134,6.3h11V19h-11ZM83.994,4.627l-9.821,9.837-2.58-2.587,9.818-9.834ZM67.281,11V0H63.638V11Z" fill="#e3262e" fill-rule="evenodd"/><path d="M103.954,28.82l-2.816-2.784a3.366,3.366,0,0,1-2.688,1.312,2.885,2.885,0,0,1-2.368-1.088,5.751,5.751,0,0,1-.928-3.712,5.65,5.65,0,0,1,.928-3.68A2.885,2.885,0,0,1,98.45,17.78a3.366,3.366,0,0,1,2.688,1.312l2.816-2.816a7.1,7.1,0,0,0-5.5-2.24c-3.328,0-7.456,1.76-7.456,8.512s4.128,8.544,7.456,8.544A7.125,7.125,0,0,0,103.954,28.82Z" fill="#e3262e"/><path d="M113.273,30.9V27.38h-1.6c-1.056,0-1.472-.512-1.472-1.5V8.116h-4.16V26.132A4.531,4.531,0,0,0,110.9,30.9Z" fill="#e3262e"/><path d="M129.271,30.9V14.228h-4.16v10.08a2.7,2.7,0,0,1-2.784,3.04c-1.312,0-2.752-.768-2.752-3.04V14.228h-4.16V24.884a6.178,6.178,0,0,0,1.7,4.736,5.414,5.414,0,0,0,3.936,1.472,5.705,5.705,0,0,0,4.16-1.728V30.9Z" fill="#e3262e"/><path d="M146.9,22.548c0-2.5-.032-5.344-1.7-7.008a5.807,5.807,0,0,0-4.064-1.5,4.93,4.93,0,0,0-4.032,1.664V8.116h-4.16V30.9h4.032V29.332a5.069,5.069,0,0,0,4.16,1.76,5.807,5.807,0,0,0,4.064-1.5C146.871,27.924,146.9,25.044,146.9,22.548Zm-4.16,0c0,2.72-.32,4.8-2.816,4.8s-2.816-2.08-2.816-4.8.32-4.768,2.816-4.768S142.743,19.828,142.743,22.548Z" fill="#e3262e"/><path d="M163.553,23.86V22c0-4.576-2.624-7.968-7.264-7.968-4.32,0-7.264,3.072-7.264,8.512,0,6.752,3.776,8.544,7.712,8.544a7.939,7.939,0,0,0,6.336-2.624L160.545,26a4.614,4.614,0,0,1-3.776,1.568,3.443,3.443,0,0,1-3.648-3.712Zm-4.1-2.848h-6.336a4.6,4.6,0,0,1,.384-1.792,3.107,3.107,0,0,1,5.568,0A4.6,4.6,0,0,1,159.457,21.012Z" fill="#e3262e"/></g></svg>