<svg xmlns="http://www.w3.org/2000/svg" xmlns:xlink="http://www.w3.org/1999/xlink" width="138.641" height="27.938" viewBox="0 0 138.641 27.938">
  <defs>
    <clipPath id="clip-path">
      <rect width="138.641" height="27.938" fill="none"/>
    </clipPath>
  </defs>
  <g id="mcafee" clip-path="url(#clip-path)">
    <g id="mcafee-2" data-name="mcafee" transform="translate(0 0.001)">
      <path id="Caminho_2467" data-name="Caminho 2467" d="M12,67.833V45.33l9.722,7.341,9.716-7.341-.013,22.515-4.923,0V54.971l-4.784,3.561-4.779-3.561-.007,12.865Zm86.862-7.849V61.1L86.518,61.1a4.088,4.088,0,0,0,3.95,2.868,4.625,4.625,0,0,0,3.373-1.481l3.7,2.018a9.409,9.409,0,0,1-6.977,3.374h-.006a8.432,8.432,0,1,1,.009-16.847A8.551,8.551,0,0,1,98.862,59.984Zm6.208,1.125,12.344.007V59.994a8.551,8.551,0,0,0-8.294-8.954,8.432,8.432,0,1,0-.009,16.849h.006a9.417,9.417,0,0,0,6.977-3.375l-3.7-2.018a4.628,4.628,0,0,1-3.373,1.481A4.087,4.087,0,0,1,105.07,61.109Zm3.614-6.158a3.855,3.855,0,0,1,3.664,2.435l-7.185,0A3.619,3.619,0,0,1,108.684,54.952Zm-18.552-.01A3.855,3.855,0,0,1,93.8,57.376l-7.186,0A3.619,3.619,0,0,1,90.132,54.941Zm-11.105-5.1a3,3,0,0,1,1.286.251l.5.217L82.7,46.191l-.544-.221a8.235,8.235,0,0,0-2.837-.471,6.015,6.015,0,0,0-6.47,6.3l0,1.8-2,0v4.218l2,0-.006,10.055,4.538,0,.006-10.055h2.96V53.6l-2.96,0,0-1.993A1.672,1.672,0,0,1,79.027,49.839ZM61.439,45.462l9.264,22.4-5.194,0-1.533-3.825-7.761,0-1.537,3.822-5.172,0,8.547-19.425-1.229-2.97Zm.785,14.091L60.131,54.3l-2.122,5.254ZM49.4,63.974l.293-.463-3.74-2.222-.279.436a3.943,3.943,0,0,1-3.462,2.017,4.339,4.339,0,0,1,0-8.679,3.9,3.9,0,0,1,3.463,2.025l.279.428,3.759-2.226-.326-.471a8.238,8.238,0,0,0-7.172-3.866A8.449,8.449,0,1,0,49.4,63.974Z" transform="translate(21.227 -45.33)" fill-rule="evenodd"/>
      <path id="Caminho_2468" data-name="Caminho 2468" d="M43.13,34.218V22.859l-7.166,3.314V20.692l12.143-5.615V37.395l-12.143,5.62V37.533Z" transform="translate(-23.821 -15.076)" fill-rule="evenodd"/>
      <path id="Caminho_2469" data-name="Caminho 2469" d="M29.709,34.218V22.859l7.166,3.314V20.692L24.732,15.076V37.395l12.143,5.62V37.533Z" transform="translate(-24.732 -15.076)" fill-rule="evenodd"/>
    </g>
  </g>
</svg>
