<svg xmlns="http://www.w3.org/2000/svg" width="190.038" height="30.23" viewBox="0 0 190.038 30.23">
  <g id="Grupo_6543" data-name="Grupo 6543" transform="translate(5480 -13592.014)">
    <g id="Grupo_6543-2" data-name="Grupo 6543" transform="translate(-5480 13592.014)">
      <path id="Caminho_4928" data-name="Caminho 4928" d="M38.789,42.194a11.879,11.879,0,0,1-1.017,5.073,7.619,7.619,0,0,1-2.927,3.355A8.214,8.214,0,0,1,30.45,51.8a8.033,8.033,0,0,1-4.274-1.143,7.587,7.587,0,0,1-2.9-3.249,10.748,10.748,0,0,1-1.025-4.77,11.671,11.671,0,0,1,1.037-5.055,7.611,7.611,0,0,1,2.974-3.354,8.515,8.515,0,0,1,4.487-1.17,7.744,7.744,0,0,1,4.177,1.15,7.607,7.607,0,0,1,2.852,3.235A10.8,10.8,0,0,1,38.789,42.194Zm-2.145.278a8.585,8.585,0,0,0-1.6-5.523A5.4,5.4,0,0,0,30.6,34.966a5.689,5.689,0,0,0-3.213.942,6.139,6.139,0,0,0-2.2,2.673,9.322,9.322,0,0,0-.78,3.866,9.5,9.5,0,0,0,.751,3.874,5.965,5.965,0,0,0,2.139,2.629,5.565,5.565,0,0,0,3.159.929A5.606,5.606,0,0,0,35,47.908,8.233,8.233,0,0,0,36.644,42.472ZM47.58,34.144a2.581,2.581,0,0,0-1.33-.341q-2.1,0-2.1,2.744v2h2.926V40.3H44.153V51.482h-2V40.3H40.032V38.542h2.121v-2.1a4.5,4.5,0,0,1,1.121-3.185,3.717,3.717,0,0,1,2.854-1.214,3.773,3.773,0,0,1,1.451.229v1.87Z" transform="translate(10.895 -27.288)"/>
      <path id="Caminho_4929" data-name="Caminho 4929" d="M73.366,36.857a2.578,2.578,0,0,0-1.329-.342q-2.1,0-2.1,2.744v2h2.926V43.01H69.94V54.194h-2V43.01H65.818V41.254h2.121v-2.1a4.5,4.5,0,0,1,1.122-3.185,3.715,3.715,0,0,1,2.854-1.214,3.768,3.768,0,0,1,1.451.229Zm3.687-.24a1.3,1.3,0,0,1-.39.966,1.323,1.323,0,0,1-1.853.013,1.417,1.417,0,0,1-.007-1.921,1.22,1.22,0,0,1,.933-.4,1.248,1.248,0,0,1,.939.392A1.312,1.312,0,0,1,77.053,36.616Zm-.341,17.577h-2V41.253h2ZM88.124,53.6a6.317,6.317,0,0,1-3.426.91,5.863,5.863,0,0,1-3.067-.814,5.547,5.547,0,0,1-2.115-2.308,7.285,7.285,0,0,1-.755-3.348,7.365,7.365,0,0,1,1.773-5.157,6.7,6.7,0,0,1,7.615-1.288v2.123a5,5,0,0,0-2.975-1.01,3.937,3.937,0,0,0-3.152,1.434,5.544,5.544,0,0,0-1.214,3.71,5.236,5.236,0,0,0,1.153,3.576,3.9,3.9,0,0,0,3.09,1.313,4.93,4.93,0,0,0,3.073-1.112Zm12.286-5.358H91.595a4.934,4.934,0,0,0,1.116,3.342,3.823,3.823,0,0,0,2.955,1.156,5.993,5.993,0,0,0,3.867-1.415V53.26a6.957,6.957,0,0,1-4.341,1.25,5.149,5.149,0,0,1-4.171-1.788,7.474,7.474,0,0,1-1.5-4.948,8.092,8.092,0,0,1,.751-3.506,5.884,5.884,0,0,1,2.066-2.458,5.193,5.193,0,0,1,2.926-.873,4.65,4.65,0,0,1,3.786,1.638,6.962,6.962,0,0,1,1.36,4.581Zm-2.047-1.757a4.394,4.394,0,0,0-.836-2.787,2.785,2.785,0,0,0-2.285-.992,3.166,3.166,0,0,0-2.377,1.036,4.9,4.9,0,0,0-1.243,2.743Zm17.262,2.578a5.017,5.017,0,0,1-1.695,3.95,6.475,6.475,0,0,1-4.451,1.5,7.075,7.075,0,0,1-3.976-.985V51.3a6.238,6.238,0,0,0,4.048,1.44,4.34,4.34,0,0,0,2.933-.942,3.186,3.186,0,0,0,1.092-2.546q0-3.55-4.877-3.55h-1.451V43.945h1.377q4.315,0,4.316-3.336,0-3.083-3.292-3.083a5.482,5.482,0,0,0-3.474,1.289V36.805a7.386,7.386,0,0,1,3.975-1.036,5.052,5.052,0,0,1,3.505,1.195,4,4,0,0,1,1.334,3.127,4.4,4.4,0,0,1-3.487,4.6v.05a4.764,4.764,0,0,1,2.988,1.391A4.056,4.056,0,0,1,115.625,49.063Zm13.155-.618a6.778,6.778,0,0,1-.713,3.121,5.23,5.23,0,0,1-4.786,2.945,4.724,4.724,0,0,1-4.116-2.186,10.725,10.725,0,0,1-1.493-6.1,15.719,15.719,0,0,1,.885-5.489,8.183,8.183,0,0,1,2.5-3.67,5.839,5.839,0,0,1,3.743-1.29,6.859,6.859,0,0,1,2.9.518v1.959a5.988,5.988,0,0,0-2.854-.72,4.248,4.248,0,0,0-3.712,2.155,10.428,10.428,0,0,0-1.4,5.743h.049a4.111,4.111,0,0,1,3.987-2.566,4.623,4.623,0,0,1,3.634,1.536A5.858,5.858,0,0,1,128.779,48.445Zm-2.048.265a4.612,4.612,0,0,0-.9-3,3.054,3.054,0,0,0-2.506-1.1,3.24,3.24,0,0,0-2.463,1.067,3.639,3.639,0,0,0-1,2.583,5.048,5.048,0,0,0,.993,3.19,3.045,3.045,0,0,0,2.507,1.283,3.014,3.014,0,0,0,2.432-1.118A4.4,4.4,0,0,0,126.732,48.71Zm13.814-.051a5.59,5.59,0,0,1-1.688,4.247,6.276,6.276,0,0,1-4.506,1.6,6.829,6.829,0,0,1-3.621-.757v-2.2a6.479,6.479,0,0,0,3.645,1.189,4.164,4.164,0,0,0,2.986-1.075,3.775,3.775,0,0,0,1.135-2.879,3.5,3.5,0,0,0-1.146-2.775,4.909,4.909,0,0,0-3.329-1,24.7,24.7,0,0,0-2.963.15l.6-9.085h8.084v1.87h-6.352l-.353,5.32,1.609-.064a6.21,6.21,0,0,1,4.316,1.43A5.148,5.148,0,0,1,140.546,48.659ZM32.329,57.711h0V32.6L23.646,30,8.039,36.074,8,36.081,8,54.24l5.326-2.16V37.305l10.318-2.557V56.47L8.011,54.24l15.634,5.983v.007l8.682-2.49v-.029Z" transform="translate(-8 -30)"/>
    </g>
    <path id="Caminho_4945" data-name="Caminho 4945" d="M-24.187-17.25h5.75a4.658,4.658,0,0,1,3.3,1.137,3.977,3.977,0,0,1,1.225,3.063,4.339,4.339,0,0,1-.675,2.463,3.756,3.756,0,0,1-1.7,1.437V-9a4.138,4.138,0,0,1,2.313,1.575,4.675,4.675,0,0,1,.787,2.75A4.426,4.426,0,0,1-14.55-1.263,5.212,5.212,0,0,1-18.238,0h-5.95Zm5.5,15.8a3.732,3.732,0,0,0,2.7-.875,3.328,3.328,0,0,0,.9-2.5,3.32,3.32,0,0,0-.9-2.512A3.727,3.727,0,0,0-18.663-8.2h-3.625v6.75Zm-.2-8.15a3.186,3.186,0,0,0,2.35-.8,3.113,3.113,0,0,0,.8-2.3,3.113,3.113,0,0,0-.8-2.3,3.186,3.186,0,0,0-2.35-.8h-3.4v6.2ZM-4.062-1.5h-.2A5.649,5.649,0,0,1-5.937-.187,4.425,4.425,0,0,1-7.988.3a3.54,3.54,0,0,1-2.637-1,3.641,3.641,0,0,1-.988-2.675A3.458,3.458,0,0,1-10.3-6.288,5.917,5.917,0,0,1-6.613-7.3a16.821,16.821,0,0,1,2.225.15V-8.7a2.823,2.823,0,0,0-.737-2.087,2.859,2.859,0,0,0-2.113-.738,7.262,7.262,0,0,0-1.863.262,7.055,7.055,0,0,0-1.688.663v-1.55a9.02,9.02,0,0,1,1.813-.625,8.678,8.678,0,0,1,2.038-.25,4.584,4.584,0,0,1,3.275,1.088,4.079,4.079,0,0,1,1.15,3.113v6L-2.038,0h-1.6ZM-9.887-3.375a2.388,2.388,0,0,0,.6,1.725,2.246,2.246,0,0,0,1.7.625,3.682,3.682,0,0,0,1.75-.437A5.188,5.188,0,0,0-4.388-2.6V-5.925a20.639,20.639,0,0,0-2.1-.1Q-9.887-6.025-9.887-3.375ZM.537-9.5a3.062,3.062,0,0,1,1.225-2.613,5.311,5.311,0,0,1,3.25-.913,12.226,12.226,0,0,1,1.6.113,8.335,8.335,0,0,1,1.4.288v1.575a8.012,8.012,0,0,0-1.5-.412,8.6,8.6,0,0,0-1.55-.163,3.223,3.223,0,0,0-1.9.512A1.733,1.733,0,0,0,2.337-9.6a1.617,1.617,0,0,0,.488,1.25,5.75,5.75,0,0,0,1.613.925l.975.375a7.735,7.735,0,0,1,2.5,1.388A2.887,2.887,0,0,1,8.787-3.4a3.323,3.323,0,0,1-1.2,2.713A5,5,0,0,1,4.312.3,8.739,8.739,0,0,1,2.237.038,6.567,6.567,0,0,1,.412-.675V-2.25a8.009,8.009,0,0,0,1.875.813,7.089,7.089,0,0,0,2.025.313A2.989,2.989,0,0,0,6.262-1.7a1.9,1.9,0,0,0,.7-1.55,1.63,1.63,0,0,0-.537-1.325A7.305,7.305,0,0,0,4.612-5.55L3.512-6A6.364,6.364,0,0,1,1.3-7.35,2.933,2.933,0,0,1,.537-9.5Zm13.125-3.225V0H11.787V-12.725Zm-2.2-3.725a1.27,1.27,0,0,1,.325-.9,1.2,1.2,0,0,1,.925-.35,1.217,1.217,0,0,1,.938.337,1.29,1.29,0,0,1,.313.913,1.245,1.245,0,0,1-.312.9,1.244,1.244,0,0,1-.937.325,1.224,1.224,0,0,1-.925-.337A1.226,1.226,0,0,1,11.462-16.45Zm13.575,5.5a6.455,6.455,0,0,0-1.225-.387,6.1,6.1,0,0,0-1.325-.163,3.115,3.115,0,0,0-2.75,1.35,6.618,6.618,0,0,0-.925,3.775,6.544,6.544,0,0,0,.95,3.787,3.219,3.219,0,0,0,2.825,1.363,5.151,5.151,0,0,0,1.25-.163,5.053,5.053,0,0,0,1.2-.462v1.6a6.057,6.057,0,0,1-2.6.55,4.985,4.985,0,0,1-4.113-1.813,7.518,7.518,0,0,1-1.462-4.862,7.51,7.51,0,0,1,1.45-4.85,5.049,5.049,0,0,1,4.175-1.8,7.766,7.766,0,0,1,2.55.45Z" transform="translate(-5315 13615.528)"/>
  </g>
</svg>
