<svg width="72" height="72" viewBox="0 0 72 72" fill="none" xmlns="http://www.w3.org/2000/svg">
<circle cx="36" cy="36" r="35" fill="#0BDA68" stroke="#DBDBDB" stroke-width="2"/>
<path d="M15 29.3222C15 35.1737 18.2505 40.2554 23.0197 42.8109L23.0177 42.8155C25.6348 44.2207 27.5095 46.8573 27.8944 49.9637H27.8898C28.1003 51.7775 29.6157 53.1443 31.4157 53.1439C32.3568 53.1441 33.2593 52.765 33.9249 52.09C34.5904 51.4149 34.9644 50.4993 34.9646 49.5445C34.9658 48.6665 34.6494 47.8185 34.0754 47.1614L34.078 47.1587C33.1575 46.0977 32.6505 44.7321 32.6525 43.3185C32.6525 43.26 32.6525 43.2021 32.6551 43.1435C31.3961 42.039 30.6732 40.4332 30.6748 38.7444C30.6748 38.2455 30.737 37.7618 30.8531 37.3C32.1689 37.3394 33.431 37.8378 34.4269 38.7112C35.8972 37.7842 37.5942 37.2944 39.3252 37.2974C42.44 37.2974 45.1961 38.8509 46.882 41.2361C47.1032 43.5839 45.9064 45.8352 43.8511 46.9372V46.9365L43.8538 46.9412C41.9751 47.9503 40.8002 49.9306 40.8007 52.0874C40.8007 55.3035 43.3711 57.9109 46.543 57.9109C48.0965 57.913 49.5842 57.2748 50.6649 56.1425L50.6662 56.1432C51.4082 55.3709 52.0676 54.5212 52.6334 53.6083C54.138 51.1824 54.9342 48.3736 54.9298 45.5074C54.9298 38.3952 50.1279 32.4206 43.6328 30.736L43.6361 30.728C41.1574 30.0827 39.3252 27.802 39.3252 25.0868C39.3246 23.0733 40.3499 21.2026 42.0361 20.1408L42.0262 20.1275C39.5725 16.8409 35.8348 14.5948 31.5705 14.1557C31.0602 14.1032 30.5476 14.077 30.0348 14.0771C21.7311 14.0771 15 20.9033 15 29.3229" fill="url(#paint0_linear_866_3336)"/>
<path d="M37.0156 41.6058C37.6291 41.8358 38.3326 41.9668 39.0804 41.9668C40.7341 41.9668 42.1666 41.3283 42.8866 40.3928C42.2564 40.1555 41.5449 40.0309 40.8211 40.0313C39.1689 40.0313 37.7356 40.6703 37.0156 41.6058Z" fill="url(#paint1_linear_866_3336)"/>
<defs>
<linearGradient id="paint0_linear_866_3336" x1="14.9453" y1="90.5538" x2="73.9836" y2="90.5538" gradientUnits="userSpaceOnUse">
<stop stop-color="white"/>
<stop offset="1" stop-color="white"/>
</linearGradient>
<linearGradient id="paint1_linear_866_3336" x1="9.85397" y1="66.3874" x2="81.3915" y2="66.3874" gradientUnits="userSpaceOnUse">
<stop stop-color="white"/>
<stop offset="1" stop-color="white"/>
</linearGradient>
</defs>
</svg>
