<svg xmlns="http://www.w3.org/2000/svg" width="112.558" height="16" viewBox="0 0 112.558 16">
  <g id="Grupo_6611" data-name="Grupo 6611" transform="translate(5818.907 -13130)">
    <g id="Icon_-_Ações_-_Telefone_Fixo" data-name="Icon - Ações - Telefone Fixo" transform="translate(-5818.907 13130)">
      <path id="telefone-fixo" d="M12.353,16a7.528,7.528,0,0,1-3.364-.9,18.587,18.587,0,0,1-4.581-3.5C.013,7.2-.322,4.136.171,2.34A2.327,2.327,0,0,1,1.236.958L2.49.2A1.428,1.428,0,0,1,4.414.636L6.425,3.652a1.436,1.436,0,0,1-.311,1.92L5.1,6.36l.019.037A9.684,9.684,0,0,0,7.094,8.906a9.6,9.6,0,0,0,2.5,1.97l0,0,.042.023.789-1.014a1.433,1.433,0,0,1,1.918-.312l3.018,2.012a1.427,1.427,0,0,1,.431,1.922l-.756,1.261a2.317,2.317,0,0,1-1.374,1.058A4.926,4.926,0,0,1,12.353,16ZM3.174,1.66l-1.121.673a.74.74,0,0,0-.341.437C1.4,3.9,1.484,6.407,5.539,10.462,7.334,12.257,9.975,14.4,12.366,14.4a3.315,3.315,0,0,0,.871-.11.729.729,0,0,0,.428-.334l.676-1.127L11.593,11l-.78,1a1.41,1.41,0,0,1-1.123.554A1.434,1.434,0,0,1,9,12.372l-.163-.089a11.093,11.093,0,0,1-2.871-2.246A11.239,11.239,0,0,1,3.717,7.168l0,0-.086-.158a1.42,1.42,0,0,1,.377-1.822l1-.778L3.174,1.66Z" transform="translate(0 0)"/>
    </g>
    <path id="Caminho_4995" data-name="Caminho 4995" d="M-38.188-7.332h-2.249V0h-2.041V-7.332h-2.249V-8.97h6.539Zm6.851-1.638v1.6h-3.458v2.028h2.509v1.586h-2.509V-1.6h3.458V0h-5.486V-8.97Zm3.588,0v7.332h3.185V0H-29.79V-8.97Zm10.244,0v1.6h-3.458v2.028h2.509v1.586h-2.509V-1.6H-17.5V0h-5.486V-8.97Zm6.929,0v1.638h-3.341v2.418h2.5v1.638h-2.5V0h-2.041V-8.97Zm4.6,9.126A3.655,3.655,0,0,1-8.931-1.086a5.111,5.111,0,0,1-1.046-3.4,5.111,5.111,0,0,1,1.046-3.4A3.655,3.655,0,0,1-5.974-9.126,3.644,3.644,0,0,1-3.023-7.891a5.127,5.127,0,0,1,1.04,3.406,5.127,5.127,0,0,1-1.04,3.406A3.644,3.644,0,0,1-5.974.156ZM-7.911-4.485q0,2.964,1.937,2.964T-4.05-4.485q0-2.964-1.924-2.964T-7.911-4.485ZM-.449-8.97H1.514L4.881-2.652h.091a22.156,22.156,0,0,1-.247-3.2V-8.97H6.558V0H4.6L1.215-6.305H1.137A24.068,24.068,0,0,1,1.384-3.12V0H-.449Zm14.56,0v1.6H10.653v2.028h2.509v1.586H10.653V-1.6h3.458V0H8.625V-8.97Zm9.5,0v1.638H20.273v2.418h2.5v1.638h-2.5V0H18.232V-8.97Zm3.536,0V0H25.11V-8.97Zm3.51,0,1.625,3.289h.1l1.6-3.289h2.106L33.962-4.6,36.185,0H34.014L32.272-3.484h-.065L30.517,0H28.411l2.21-4.537L28.489-8.97ZM40.567.156a3.655,3.655,0,0,1-2.958-1.242,5.111,5.111,0,0,1-1.047-3.4,5.111,5.111,0,0,1,1.047-3.4,3.655,3.655,0,0,1,2.958-1.241,3.644,3.644,0,0,1,2.951,1.235,5.127,5.127,0,0,1,1.04,3.406,5.127,5.127,0,0,1-1.04,3.406A3.644,3.644,0,0,1,40.567.156ZM38.63-4.485q0,2.964,1.937,2.964t1.924-2.964q0-2.964-1.924-2.964T38.63-4.485Z" transform="translate(-5750.907 13142)"/>
  </g>
</svg>
