<svg id="pontoultra" xmlns="http://www.w3.org/2000/svg" width="119.512" height="19.809" viewBox="0 0 119.512 19.809">
  <path id="Caminho_1379" data-name="Caminho 1379" d="M123.241,22.346v-.773h-2.795q-1.981,0-1.981,1.628,0,1.655,2.036,1.655a2.7,2.7,0,0,0,2.415-.91A3.009,3.009,0,0,0,123.241,22.346Zm3.575,5.3h-3.466V26.4a4.7,4.7,0,0,1-3.494,1.379,4.8,4.8,0,0,1-3.6-1.242,4.485,4.485,0,0,1-1.2-3.255,3.944,3.944,0,0,1,1.237-2.993,5.049,5.049,0,0,1,3.6-1.173h3.346V18.4q0-2.262-2.638-2.262a3.383,3.383,0,0,0-2.719,1.186l-2.257-2.235a5.549,5.549,0,0,1,2.21-1.572,8.429,8.429,0,0,1,2.92-.414q6.059,0,6.059,5.076ZM114.678,14.456,112,17.187a2.6,2.6,0,0,0-1.884-.855,2.162,2.162,0,0,0-1.556.635,2.741,2.741,0,0,0-.737,2.014v8.663H104.28V13.27h3.466v1.379a4.392,4.392,0,0,1,3.575-1.545A4.528,4.528,0,0,1,114.678,14.456ZM101.748,27.643H99.81a3.921,3.921,0,0,1-3.138-1.3,4.138,4.138,0,0,1-.983-2.814V16.415h-1.5V13.683h1.5V9.435h3.575v4.249h2.483v2.731H99.264v6.9q0,1.3,1.215,1.3h1.269Zm-7.93,0H91.8a3.954,3.954,0,0,1-3.166-1.3,4.139,4.139,0,0,1-.982-2.814V8h3.575V23.312q0,1.3,1.242,1.3h1.35Zm-8.668,0H81.684V26.319a4.642,4.642,0,0,1-3.548,1.49,4.508,4.508,0,0,1-3.357-1.269,5.553,5.553,0,0,1-1.446-4.083V13.269h3.575v8.69A2.627,2.627,0,0,0,77.663,24a2.2,2.2,0,0,0,1.565.579A2.24,2.24,0,0,0,80.819,24a2.628,2.628,0,0,0,.755-2.042v-8.69h3.575Z" transform="translate(-7.304 -8)" fill="#e3262e" fill-rule="evenodd"/>
  <path id="Caminho_1380" data-name="Caminho 1380" d="M59.8,20.442q0-2.648-.813-3.476a2.215,2.215,0,0,0-1.654-.635,2.179,2.179,0,0,0-1.626.635q-.813.828-.813,3.476,0,2.676.813,3.5a2.178,2.178,0,0,0,1.626.634,2.214,2.214,0,0,0,1.654-.634Q59.8,23.118,59.8,20.442Zm3.591,0a13.036,13.036,0,0,1-.329,3.283,5.175,5.175,0,0,1-1.288,2.317,6.433,6.433,0,0,1-8.855,0,5.168,5.168,0,0,1-1.289-2.317,13.045,13.045,0,0,1-.329-3.283q0-3.862,1.645-5.6a6.438,6.438,0,0,1,8.8,0Q63.388,16.58,63.388,20.442Zm-13.373,7.2H48.069a3.947,3.947,0,0,1-3.153-1.3,4.126,4.126,0,0,1-.987-2.814V16.415H42.422V13.683h1.508V9.435h3.591v4.249h2.495v2.731H47.521v6.9q0,1.3,1.22,1.3h1.274Zm-8.96,0H37.464v-8.69a2.613,2.613,0,0,0-.763-2.042,2.239,2.239,0,0,0-1.58-.579,2.275,2.275,0,0,0-1.608.579,2.613,2.613,0,0,0-.763,2.042v8.69H29.186V13.27h3.481v1.324a4.673,4.673,0,0,1,3.564-1.49A4.542,4.542,0,0,1,39.6,14.373a5.541,5.541,0,0,1,1.453,4.083Zm-17.54-7.2q0-2.648-.813-3.476a2.215,2.215,0,0,0-1.654-.635,2.179,2.179,0,0,0-1.626.635q-.813.828-.813,3.476,0,2.676.813,3.5a2.178,2.178,0,0,0,1.626.634,2.213,2.213,0,0,0,1.654-.634Q23.516,23.118,23.516,20.442Zm3.591,0a13.045,13.045,0,0,1-.329,3.283,5.176,5.176,0,0,1-1.289,2.317,5.83,5.83,0,0,1-4.441,1.766,5.8,5.8,0,0,1-4.414-1.766,5.169,5.169,0,0,1-1.288-2.317,13.045,13.045,0,0,1-.329-3.283q0-3.862,1.645-5.6A5.755,5.755,0,0,1,21.049,13.1a5.789,5.789,0,0,1,4.414,1.738Q27.107,16.58,27.107,20.442ZM10.2,14.125a2.607,2.607,0,0,0-.767-1.959,2.827,2.827,0,0,0-2.056-.745H3.81V16.8H7.374A2.858,2.858,0,0,0,9.43,16.07,2.561,2.561,0,0,0,10.2,14.125Zm3.811,0a5.856,5.856,0,0,1-1.7,4.3,6.392,6.392,0,0,1-4.743,1.821H3.81v7.394H0V8H7.566a6.391,6.391,0,0,1,4.743,1.821A5.856,5.856,0,0,1,14.008,14.125Z" transform="translate(0 -8)" fill="#e3262e" fill-rule="evenodd"/>
</svg>
