<svg id="wi-fi-plus" xmlns="http://www.w3.org/2000/svg" width="140.226" height="22.908" viewBox="0 0 140.226 22.908">
  <path id="Caminho_1135" data-name="Caminho 1135" d="M51.7,25.7h-2.9l-3.27-10.782L42.267,25.7h-2.9L34.626,7.924h3.621l2.744,11.209L44.238,7.924h2.6l3.247,11.209L52.856,7.924h3.621Zm7.734-14.626a2.036,2.036,0,1,1,0-4.072,2.036,2.036,0,0,1,0,4.072ZM57.817,25.7V12.692h3.247V25.7Zm5.891-5.616V17.063H71.4v3.019Zm14.076-9.062v4.37H84.8v3.095H77.785V25.7H74.315V7.924H86.022v3.095Zm12,.053a2.036,2.036,0,1,1,0-4.072,2.036,2.036,0,0,1,0,4.072ZM88.163,25.7V12.692H91.41V25.7Z" transform="translate(-6.297 -7)" fill="#e3262e"/>
  <path id="Caminho_1136" data-name="Caminho 1136" d="M160.958,20.9a3.734,3.734,0,0,1-1.624,3.247,6.8,6.8,0,0,1-3.983,1.065,11.4,11.4,0,0,1-3.019-.33,6.067,6.067,0,0,1-2.612-1.573l2.156-2.156A4.77,4.77,0,0,0,155.4,22.4q2.334,0,2.334-1.37,0-1.091-1.395-1.218l-2.081-.2q-3.857-.38-3.856-3.7a3.736,3.736,0,0,1,1.547-3.146,5.754,5.754,0,0,1,3.552-1.065,7.161,7.161,0,0,1,5.049,1.548l-2.03,2.055a4.5,4.5,0,0,0-3.07-.888q-1.878,0-1.877,1.268,0,1.015,1.37,1.142l2.081.2Q160.958,17.4,160.958,20.9Zm-13.648,4.16h-3.222V23.845a4.34,4.34,0,0,1-3.3,1.37,4.215,4.215,0,0,1-3.12-1.167,5.074,5.074,0,0,1-1.345-3.755V11.845h3.323v7.991a2.4,2.4,0,0,0,.7,1.877,2.062,2.062,0,0,0,1.455.533,2.1,2.1,0,0,0,1.48-.533,2.4,2.4,0,0,0,.7-1.877V11.845h3.323Zm-13.5,0h-1.877a3.694,3.694,0,0,1-2.943-1.192,3.78,3.78,0,0,1-.913-2.588V7H131.4V21.08a1.037,1.037,0,0,0,1.154,1.192h1.255Zm-12.076-6.622a8.09,8.09,0,0,0-.277-2.512,2.122,2.122,0,0,0-3.885,0,8.065,8.065,0,0,0-.277,2.512,8.064,8.064,0,0,0,.277,2.511,2.105,2.105,0,0,0,3.885,0A8.089,8.089,0,0,0,121.737,18.441Zm3.323,0a19.136,19.136,0,0,1-.178,3.044,4.558,4.558,0,0,1-1.167,2.537,4.353,4.353,0,0,1-3.222,1.192,4.1,4.1,0,0,1-3.2-1.319v6.012H114V11.846h3.2v1.243a4.251,4.251,0,0,1,3.3-1.4,4.354,4.354,0,0,1,3.222,1.192,4.56,4.56,0,0,1,1.167,2.537A18.926,18.926,0,0,1,125.061,18.442Z" transform="translate(-20.731 -7)" fill="#e3262e" fill-rule="evenodd"/>
  <path id="Caminho_1137" data-name="Caminho 1137" d="M13.077,23.674a1.218,1.218,0,0,0-1.194-1.234,1.206,1.206,0,1,0-.064,2.41A1.244,1.244,0,0,0,13.077,23.674ZM7.092,19.989c-.369.5-.333.96.058,1.246s.813.175,1.2-.322a4.269,4.269,0,0,1,6.991-.012c.4.515.784.626,1.2.339s.433-.772.041-1.293a5.854,5.854,0,0,0-9.489.041Zm11.5-3c.626.649,1.053.772,1.439.421.415-.38.333-.872-.322-1.521A10.688,10.688,0,0,0,9.028,12.91a10.4,10.4,0,0,0-5.353,3.329.744.744,0,0,0,0,1.147A.755.755,0,0,0,4.822,17.3c.17-.175.339-.357.515-.532a8.9,8.9,0,0,1,5.815-2.68A9.677,9.677,0,0,1,18.588,16.987ZM11.6,9.007A14.122,14.122,0,0,0,1.475,13.442c-.468.474-.86.526-1.234.187-.351-.322-.316-.778.088-1.24.07-.076.135-.158.2-.228A15.3,15.3,0,0,1,8.882,7.726a15.633,15.633,0,0,1,14.445,4.622.936.936,0,0,1,.374.8.759.759,0,0,1-.509.638.822.822,0,0,1-.93-.293A14.328,14.328,0,0,0,11.6,9.007Z" transform="translate(0 -7.083)" fill="#e3262e" fill-rule="evenodd"/>
</svg>
