<svg xmlns="http://www.w3.org/2000/svg" xmlns:xlink="http://www.w3.org/1999/xlink" width="114.484" height="48.744" viewBox="0 0 114.484 48.744">
  <defs>
    <clipPath id="clip-path">
      <rect id="Retângulo_875" data-name="Retângulo 875" width="114.484" height="48.745" fill="#e3262e"/>
    </clipPath>
  </defs>
  <g id="wifi6" clip-path="url(#clip-path)">
    <path id="Caminho_3188" data-name="Caminho 3188" d="M57.36,206.648H12.783A12.8,12.8,0,0,1,0,193.864v-3.933a12.8,12.8,0,0,1,12.783-12.783H57.36a12.8,12.8,0,0,1,12.783,12.783v3.933A12.8,12.8,0,0,1,57.36,206.648M12.783,178.623A11.321,11.321,0,0,0,1.475,189.931v3.933a11.321,11.321,0,0,0,11.308,11.308H57.36a11.321,11.321,0,0,0,11.308-11.308v-3.933A11.321,11.321,0,0,0,57.36,178.623Z" transform="translate(0 -157.903)" fill="#e3262e"/>
    <path id="Caminho_3189" data-name="Caminho 3189" d="M57.36,206.648H12.783A12.8,12.8,0,0,1,0,193.864v-3.933a12.8,12.8,0,0,1,12.783-12.783H57.36a12.8,12.8,0,0,1,12.783,12.783v3.933A12.8,12.8,0,0,1,57.36,206.648M12.783,178.623A11.321,11.321,0,0,0,1.475,189.931v3.933a11.321,11.321,0,0,0,11.308,11.308H57.36a11.321,11.321,0,0,0,11.308-11.308v-3.933A11.321,11.321,0,0,0,57.36,178.623Z" transform="translate(0 -157.903)" fill="#e3262e"/>
    <path id="Caminho_3190" data-name="Caminho 3190" d="M117.64,264.167l1.922,8.515h.2l1.433-8.515h4.873l1.416,8.515h.169l1.939-8.515h3.069l-2.9,11.567h-4.6l-1.518-8.6h-.219l-1.5,8.6h-4.789l-2.917-11.567Z" transform="translate(-101.809 -235.468)" fill="#e3262e"/>
    <path id="Caminho_3191" data-name="Caminho 3191" d="M295,255.993a2.476,2.476,0,0,1,2.58,0,1.281,1.281,0,0,1,.43,1.037,1.326,1.326,0,0,1-.43,1.062,2.428,2.428,0,0,1-2.58,0,1.326,1.326,0,0,1-.43-1.062,1.282,1.282,0,0,1,.43-1.037m2.926,12.132H294.64v-8.819h3.288Z" transform="translate(-262.571 -227.859)" fill="#e3262e"/>
    <rect id="Retângulo_872" data-name="Retângulo 872" width="5.244" height="2.04" transform="translate(36.909 34.87)" fill="#e3262e"/>
    <path id="Caminho_3192" data-name="Caminho 3192" d="M412.247,263.546v2.647h-4v2.479h2.85v2.63h-2.85v3.878h-3.322V263.546Z" transform="translate(-360.939 -234.915)" fill="#e3262e"/>
    <path id="Caminho_3193" data-name="Caminho 3193" d="M486.069,255.993a2.476,2.476,0,0,1,2.58,0,1.282,1.282,0,0,1,.43,1.037,1.326,1.326,0,0,1-.43,1.062,2.428,2.428,0,0,1-2.58,0,1.326,1.326,0,0,1-.43-1.062,1.282,1.282,0,0,1,.43-1.037m2.925,12.132h-3.288v-8.819h3.288Z" transform="translate(-432.881 -227.859)" fill="#e3262e"/>
    <path id="Caminho_3194" data-name="Caminho 3194" d="M742.023,319.891a2.512,2.512,0,0,0-1.947.9,3.846,3.846,0,0,0,.532,2.008,1.605,1.605,0,0,0,1.415.683,1.711,1.711,0,0,0,1.235-.452,1.765,1.765,0,0,0,.472-1.335,1.961,1.961,0,0,0-.422-1.3,1.584,1.584,0,0,0-1.285-.5" transform="translate(-659.676 -285.139)" fill="#e3262e"/>
    <path id="Caminho_3195" data-name="Caminho 3195" d="M615.888,183.937H598.967a13.494,13.494,0,0,1,7.438,12.046v3.933a13.494,13.494,0,0,1-7.438,12.046h16.921a12.879,12.879,0,0,0,12.841-12.841v-2.342a12.879,12.879,0,0,0-12.841-12.841m5.084,18.885a4.5,4.5,0,0,1-1.9,1.737,6.3,6.3,0,0,1-2.851.612,6.192,6.192,0,0,1-3.112-.753,4.969,4.969,0,0,1-2.028-2.168,7.435,7.435,0,0,1-.7-3.343,7.906,7.906,0,0,1,1.224-4.437A7.745,7.745,0,0,1,615,191.63a11.936,11.936,0,0,1,4.939-.974v3.052a7.168,7.168,0,0,0-3.774.913,3.7,3.7,0,0,0-1.807,2.64h.12a4.253,4.253,0,0,1,1.385-1.044,4.115,4.115,0,0,1,1.787-.381,4.036,4.036,0,0,1,2.038.522,3.658,3.658,0,0,1,1.435,1.516,5.447,5.447,0,0,1-.151,4.949" transform="translate(-533.897 -163.955)" fill="#e3262e"/>
    <path id="Caminho_3196" data-name="Caminho 3196" d="M742.043,0h-5.814l0,15.715,5.815,0Z" transform="translate(-656.243 0)" fill="#e3262e"/>
    <rect id="Retângulo_873" data-name="Retângulo 873" width="20.796" height="5.873" transform="matrix(0.707, -0.707, 0.707, 0.707, 91.917, 17.462)" fill="#e3262e"/>
    <rect id="Retângulo_874" data-name="Retângulo 874" width="15.7" height="5.839" transform="translate(98.783 27.126)" fill="#e3262e"/>
  </g>
</svg>
