<svg xmlns="http://www.w3.org/2000/svg" width="139.316" height="18.083" viewBox="0 0 139.316 18.083">
  <g id="Grupo_5976" data-name="Grupo 5976" transform="translate(749 -10279.372)">
    <path id="Caminho_3198" data-name="Caminho 3198" d="M3.68-13.8,6.2-2.92h.28L8.66-13.8h4.56L15.38-2.92h.26L18.16-13.8h2.88L17.58,0H13.24L10.98-10.96H10.7L8.42,0H3.92L.46-13.8Zm22.28,3.44V0h-3.1V-10.36Zm-3.24-2.8a1.341,1.341,0,0,1,.43-1.06,1.865,1.865,0,0,1,1.27-.38,1.825,1.825,0,0,1,1.26.38,1.357,1.357,0,0,1,.42,1.06,1.382,1.382,0,0,1-.42,1.08,1.825,1.825,0,0,1-1.26.38,1.833,1.833,0,0,1-1.27-.39A1.372,1.372,0,0,1,22.72-13.16ZM34.3-6.18V-4.2H28.12V-6.18ZM44.98-13.8v2.52H39.84v3.72h3.84v2.52H39.84V0H36.7V-13.8Zm5.16,3.44V0h-3.1V-10.36Zm-3.24-2.8a1.341,1.341,0,0,1,.43-1.06,1.865,1.865,0,0,1,1.27-.38,1.825,1.825,0,0,1,1.26.38,1.357,1.357,0,0,1,.42,1.06,1.382,1.382,0,0,1-.42,1.08,1.825,1.825,0,0,1-1.26.38,1.833,1.833,0,0,1-1.27-.39A1.372,1.372,0,0,1,46.9-13.16ZM65.44-3.04h.28L68.64-13.8H72.9L74.46,0H71.28l-.56-6.92q-.16-1.94-.2-3.38H70.3L67.36,0H63.48L60.5-10.3h-.2q-.12,2.34-.22,3.34L59.44,0H56.66L58.2-13.8h4.32ZM85.7-13.8v2.46H80.38v3.12h3.86v2.44H80.38v3.32H85.7V0H77.26V-13.8Zm1.76,3.98a3.733,3.733,0,0,1,1.41-3.11,5.86,5.86,0,0,1,3.73-1.11,10.668,10.668,0,0,1,1.81.16,10.983,10.983,0,0,1,1.69.42v2.62a16.8,16.8,0,0,0-2-.48,10.184,10.184,0,0,0-1.72-.18,2.155,2.155,0,0,0-1.31.35,1.2,1.2,0,0,0-.47,1.03,1.206,1.206,0,0,0,.39.96,4.416,4.416,0,0,0,1.27.68l1.54.58Q96.86-6.74,96.86-4a4.025,4.025,0,0,1-.63,2.26A4,4,0,0,1,94.44-.27a6.6,6.6,0,0,1-2.68.51,11.6,11.6,0,0,1-2.38-.26A8.649,8.649,0,0,1,87.3-.7V-3.46a11.408,11.408,0,0,0,2.3.84,9.224,9.224,0,0,0,2.24.32,2.335,2.335,0,0,0,1.36-.35,1.177,1.177,0,0,0,.5-1.03,1.284,1.284,0,0,0-.42-1,4.43,4.43,0,0,0-1.38-.74l-1.34-.5a5.343,5.343,0,0,1-2.3-1.47A3.6,3.6,0,0,1,87.46-9.82Zm14.96-3.98v5.52h4.5V-13.8h3.14V0h-3.14V-5.76h-4.5V0H99.28V-13.8Z" transform="translate(-719.744 10297.215)" fill="#e3262e"/>
    <path id="Caminho_3197" data-name="Caminho 3197" d="M13.077,23.674a1.218,1.218,0,0,0-1.194-1.234,1.206,1.206,0,1,0-.064,2.41A1.244,1.244,0,0,0,13.077,23.674ZM7.092,19.989c-.369.5-.333.96.058,1.246s.813.175,1.2-.322a4.269,4.269,0,0,1,6.991-.012c.4.515.784.626,1.2.339s.433-.772.041-1.293a5.854,5.854,0,0,0-9.489.041Zm11.5-3c.626.649,1.053.772,1.439.421.415-.38.333-.872-.322-1.521A10.688,10.688,0,0,0,9.028,12.91a10.4,10.4,0,0,0-5.353,3.329.744.744,0,0,0,0,1.147A.755.755,0,0,0,4.822,17.3c.17-.175.339-.357.515-.532a8.9,8.9,0,0,1,5.815-2.68A9.677,9.677,0,0,1,18.588,16.987ZM11.6,9.007A14.122,14.122,0,0,0,1.475,13.442c-.468.474-.86.526-1.234.187-.351-.322-.316-.778.088-1.24.07-.076.135-.158.2-.228A15.3,15.3,0,0,1,8.882,7.726a15.633,15.633,0,0,1,14.445,4.622.936.936,0,0,1,.374.8.759.759,0,0,1-.509.638.822.822,0,0,1-.93-.293A14.328,14.328,0,0,0,11.6,9.007Z" transform="translate(-749 10271.918)" fill="#e3262e" fill-rule="evenodd"/>
  </g>
</svg>
