<svg xmlns="http://www.w3.org/2000/svg" xmlns:xlink="http://www.w3.org/1999/xlink" width="100.833" height="42.933" viewBox="0 0 100.833 42.933">
  <defs>
    <clipPath id="clip-path">
      <rect id="Retângulo_795" data-name="Retângulo 795" width="100.833" height="42.933" fill="#fff"/>
    </clipPath>
  </defs>
  <g id="wifi6" clip-path="url(#clip-path)">
    <path id="Caminho_2754" data-name="Caminho 2754" d="M50.521,203.13H11.259A11.272,11.272,0,0,1,0,191.871v-3.464a11.272,11.272,0,0,1,11.259-11.259H50.521A11.272,11.272,0,0,1,61.78,188.407v3.464A11.272,11.272,0,0,1,50.521,203.13M11.259,178.447a9.971,9.971,0,0,0-9.96,9.96v3.464a9.971,9.971,0,0,0,9.96,9.96H50.521a9.971,9.971,0,0,0,9.96-9.96v-3.464a9.971,9.971,0,0,0-9.96-9.96Z" transform="translate(0 -160.198)" fill="#fff"/>
    <path id="Caminho_2755" data-name="Caminho 2755" d="M50.521,203.13H11.259A11.272,11.272,0,0,1,0,191.871v-3.464a11.272,11.272,0,0,1,11.259-11.259H50.521A11.272,11.272,0,0,1,61.78,188.407v3.464A11.272,11.272,0,0,1,50.521,203.13M11.259,178.447a9.971,9.971,0,0,0-9.96,9.96v3.464a9.971,9.971,0,0,0,9.96,9.96H50.521a9.971,9.971,0,0,0,9.96-9.96v-3.464a9.971,9.971,0,0,0-9.96-9.96Z" transform="translate(0 -160.198)"/>
    <path id="Caminho_2756" data-name="Caminho 2756" d="M117.232,264.167l1.693,7.5h.178l1.262-7.5h4.292l1.247,7.5h.149l1.708-7.5h2.7l-2.554,10.188h-4.054l-1.337-7.574h-.193L121,274.355h-4.218l-2.569-10.188Z" transform="translate(-103.288 -238.89)"/>
    <path id="Caminho_2757" data-name="Caminho 2757" d="M294.952,255.949a2.181,2.181,0,0,1,2.272,0,1.128,1.128,0,0,1,.379.913,1.168,1.168,0,0,1-.379.936,2.138,2.138,0,0,1-2.272,0,1.168,1.168,0,0,1-.379-.936,1.129,1.129,0,0,1,.379-.913m2.577,10.686h-2.9v-7.767h2.9Z" transform="translate(-266.387 -231.17)"/>
    <rect id="Retângulo_792" data-name="Retângulo 792" width="4.619" height="1.797" transform="translate(32.508 30.712)"/>
    <path id="Caminho_2758" data-name="Caminho 2758" d="M411.375,263.546v2.332h-3.52v2.183h2.51v2.317h-2.51v3.416h-2.926V263.546Z" transform="translate(-366.184 -238.328)"/>
    <path id="Caminho_2759" data-name="Caminho 2759" d="M486.018,255.949a2.181,2.181,0,0,1,2.272,0,1.129,1.129,0,0,1,.379.913,1.169,1.169,0,0,1-.379.936,2.139,2.139,0,0,1-2.272,0,1.168,1.168,0,0,1-.379-.936,1.129,1.129,0,0,1,.379-.913m2.577,10.686h-2.9v-7.767h2.9Z" transform="translate(-439.171 -231.17)"/>
    <path id="Caminho_2760" data-name="Caminho 2760" d="M741.791,319.891a2.213,2.213,0,0,0-1.715.8,3.389,3.389,0,0,0,.469,1.768,1.414,1.414,0,0,0,1.247.6,1.508,1.508,0,0,0,1.087-.4,1.555,1.555,0,0,0,.415-1.176,1.728,1.728,0,0,0-.371-1.149,1.4,1.4,0,0,0-1.132-.442" transform="translate(-669.262 -289.283)" fill="#e3262e"/>
    <path id="Caminho_2761" data-name="Caminho 2761" d="M613.87,183.937h-14.9a11.885,11.885,0,0,1,6.551,10.609v3.464a11.885,11.885,0,0,1-6.551,10.609h14.9a11.343,11.343,0,0,0,11.31-11.31v-2.063a11.343,11.343,0,0,0-11.31-11.31m4.478,16.633a3.963,3.963,0,0,1-1.671,1.529,5.547,5.547,0,0,1-2.511.539,5.455,5.455,0,0,1-2.741-.663,4.378,4.378,0,0,1-1.786-1.91,6.549,6.549,0,0,1-.619-2.944,6.964,6.964,0,0,1,1.078-3.908,6.822,6.822,0,0,1,2.988-2.5,10.513,10.513,0,0,1,4.35-.858v2.688a6.315,6.315,0,0,0-3.324.8,3.262,3.262,0,0,0-1.591,2.325h.106a3.743,3.743,0,0,1,1.22-.92,3.625,3.625,0,0,1,1.574-.336,3.554,3.554,0,0,1,1.795.46,3.22,3.22,0,0,1,1.264,1.335,4.8,4.8,0,0,1-.133,4.359" transform="translate(-541.655 -166.337)" fill="#e3262e"/>
    <path id="Caminho_2762" data-name="Caminho 2762" d="M741.35,0h-5.121l0,13.842,5.121,0Z" transform="translate(-665.78 0)" fill="#e3262e"/>
    <rect id="Retângulo_793" data-name="Retângulo 793" width="18.317" height="5.173" transform="matrix(0.707, -0.707, 0.707, 0.707, 80.957, 15.38)" fill="#e3262e"/>
    <rect id="Retângulo_794" data-name="Retângulo 794" width="13.828" height="5.143" transform="translate(87.005 23.892)" fill="#e3262e"/>
  </g>
</svg>
