<svg id="wi-fi-plus" xmlns="http://www.w3.org/2000/svg" width="129.484" height="21.153" viewBox="0 0 129.484 21.153">
  <path id="Caminho_2470" data-name="Caminho 2470" d="M51.2,24.266H48.524L45.5,14.309l-3.02,9.956H39.81L35.429,7.854h3.344L41.306,18.2l3-10.351h2.4l3,10.351L52.262,7.854h3.344ZM58.34,10.76a1.88,1.88,0,1,1,0-3.76,1.88,1.88,0,0,1,0,3.76Zm-1.5,13.506V12.256h3V24.266Zm5.44-5.186V16.292h7.1v2.788Zm13-8.368v4.036h6.477V17.6H75.281v6.661h-3.2V7.854h10.81v2.858Zm11.08.049a1.88,1.88,0,1,1,0-3.76,1.88,1.88,0,0,1,0,3.76Zm-1.5,13.506V12.256h3V24.266Z" transform="translate(-9.27 -7)"/>
  <path id="Caminho_2471" data-name="Caminho 2471" d="M158.163,19.837a3.448,3.448,0,0,1-1.5,3,6.282,6.282,0,0,1-3.678.984,10.526,10.526,0,0,1-2.788-.3,5.609,5.609,0,0,1-2.413-1.452l1.991-1.991a4.4,4.4,0,0,0,3.256,1.148q2.155,0,2.155-1.265,0-1.007-1.289-1.124l-1.92-.188q-3.562-.351-3.561-3.42a3.45,3.45,0,0,1,1.429-2.9,5.312,5.312,0,0,1,3.28-.984,6.613,6.613,0,0,1,4.662,1.429l-1.874,1.9a4.152,4.152,0,0,0-2.835-.82q-1.734,0-1.734,1.171,0,.937,1.265,1.054l1.921.187Q158.163,16.6,158.163,19.837Zm-12.6,3.841h-2.975V22.554a4.006,4.006,0,0,1-3.045,1.265,3.891,3.891,0,0,1-2.881-1.078,4.685,4.685,0,0,1-1.242-3.467v-7.8h3.069v7.379a2.217,2.217,0,0,0,.648,1.733,1.9,1.9,0,0,0,1.343.492,1.935,1.935,0,0,0,1.366-.492,2.217,2.217,0,0,0,.648-1.733V11.474h3.069Zm-12.462,0h-1.733a3.411,3.411,0,0,1-2.717-1.1,3.488,3.488,0,0,1-.844-2.389V7h3.069V20a.958.958,0,0,0,1.067,1.1H133.1Zm-11.151-6.114a7.441,7.441,0,0,0-.257-2.319,1.959,1.959,0,0,0-3.587,0,7.446,7.446,0,0,0-.256,2.319,7.445,7.445,0,0,0,.256,2.319,1.943,1.943,0,0,0,3.587,0A7.44,7.44,0,0,0,121.948,17.565Zm3.069,0a17.673,17.673,0,0,1-.164,2.811,4.214,4.214,0,0,1-1.077,2.343,4.021,4.021,0,0,1-2.975,1.1,3.781,3.781,0,0,1-2.952-1.218v5.552H114.8V11.474h2.952v1.148a3.924,3.924,0,0,1,3.045-1.288,4.022,4.022,0,0,1,2.975,1.1,4.216,4.216,0,0,1,1.077,2.343A17.479,17.479,0,0,1,125.016,17.565Z" transform="translate(-28.679 -7)" fill-rule="evenodd"/>
  <path id="Caminho_2472" data-name="Caminho 2472" d="M12.878,22.432a1.125,1.125,0,0,0-1.1-1.14,1.113,1.113,0,1,0-.059,2.226A1.149,1.149,0,0,0,12.878,22.432Zm-5.526-3.4c-.34.459-.308.886.054,1.151s.751.162,1.108-.3a3.942,3.942,0,0,1,6.456-.011c.373.475.724.578,1.107.313s.4-.713.038-1.194a5.406,5.406,0,0,0-8.762.038Zm10.615-2.771c.578.6.972.713,1.329.389.384-.351.308-.8-.3-1.4a9.869,9.869,0,0,0-9.859-2.75A9.6,9.6,0,0,0,4.2,15.566a.687.687,0,0,0,0,1.059.7.7,0,0,0,1.059-.076c.157-.162.313-.33.475-.492a8.216,8.216,0,0,1,5.37-2.474A8.936,8.936,0,0,1,17.967,16.257ZM11.512,8.888a13.04,13.04,0,0,0-9.346,4.095c-.432.438-.794.486-1.14.173-.324-.3-.292-.719.081-1.145.065-.07.124-.146.189-.211A14.124,14.124,0,0,1,9,7.705a14.436,14.436,0,0,1,13.338,4.268.864.864,0,0,1,.346.74.7.7,0,0,1-.47.589.759.759,0,0,1-.859-.27,13.23,13.23,0,0,0-9.848-4.144Z" transform="translate(-0.803 -7.111)" fill-rule="evenodd"/>
</svg>
